<svg width="24" height="24" viewBox="0 0 24 24" fill="none" xmlns="http://www.w3.org/2000/svg">
<path d="M20 8.2V15.8H22V8.2H20ZM17.8 18H6.2V20H17.8V18ZM4 15.8V8.2H2V15.8H4ZM6.2 6H17.8V4H6.2V6ZM6.2 18C5.62345 18 5.25117 17.9992 4.96784 17.9761C4.69617 17.9539 4.59545 17.9162 4.54601 17.891L3.63803 19.673C4.01641 19.8658 4.40963 19.9371 4.80497 19.9694C5.18864 20.0008 5.65645 20 6.2 20V18ZM2 15.8C2 16.3435 1.99922 16.8114 2.03057 17.195C2.06287 17.5904 2.13419 17.9836 2.32698 18.362L4.10899 17.454C4.0838 17.4045 4.04612 17.3038 4.02393 17.0322C4.00078 16.7488 4 16.3765 4 15.8H2ZM4.54601 17.891C4.35785 17.7951 4.20487 17.6421 4.10899 17.454L2.32698 18.362C2.6146 18.9265 3.07354 19.3854 3.63803 19.673L4.54601 17.891ZM20 15.8C20 16.3765 19.9992 16.7488 19.9761 17.0322C19.9539 17.3038 19.9162 17.4045 19.891 17.454L21.673 18.362C21.8658 17.9836 21.9371 17.5904 21.9694 17.195C22.0008 16.8114 22 16.3435 22 15.8H20ZM17.8 20C18.3436 20 18.8114 20.0008 19.195 19.9694C19.5904 19.9371 19.9836 19.8658 20.362 19.673L19.454 17.891C19.4045 17.9162 19.3038 17.9539 19.0322 17.9761C18.7488 17.9992 18.3766 18 17.8 18V20ZM19.891 17.454C19.7951 17.6421 19.6422 17.7951 19.454 17.891L20.362 19.673C20.9265 19.3854 21.3854 18.9265 21.673 18.362L19.891 17.454ZM22 8.2C22 7.65645 22.0008 7.18864 21.9694 6.80497C21.9371 6.40963 21.8658 6.01641 21.673 5.63803L19.891 6.54601C19.9162 6.59545 19.9539 6.69617 19.9761 6.96784C19.9992 7.25117 20 7.62345 20 8.2H22ZM17.8 6C18.3766 6 18.7488 6.00078 19.0322 6.02393C19.3038 6.04612 19.4045 6.0838 19.454 6.10899L20.362 4.32698C19.9836 4.13419 19.5904 4.06287 19.195 4.03057C18.8114 3.99922 18.3436 4 17.8 4V6ZM21.673 5.63803C21.3854 5.07354 20.9265 4.6146 20.362 4.32698L19.454 6.10899C19.6422 6.20487 19.7951 6.35785 19.891 6.54601L21.673 5.63803ZM4 8.2C4 7.62345 4.00078 7.25117 4.02393 6.96784C4.04612 6.69617 4.0838 6.59545 4.10899 6.54601L2.32698 5.63803C2.13419 6.01641 2.06287 6.40963 2.03057 6.80497C1.99922 7.18864 2 7.65645 2 8.2H4ZM6.2 4C5.65645 4 5.18864 3.99922 4.80497 4.03057C4.40963 4.06287 4.01641 4.13419 3.63803 4.32698L4.54601 6.10899C4.59545 6.0838 4.69617 6.04612 4.96784 6.02393C5.25117 6.00078 5.62345 6 6.2 6V4ZM4.10899 6.54601C4.20487 6.35785 4.35785 6.20487 4.54601 6.10899L3.63803 4.32698C3.07354 4.6146 2.6146 5.07354 2.32698 5.63803L4.10899 6.54601ZM20.3668 4.86241L12.6332 11.1898L13.8997 12.7378L21.6332 6.41033L20.3668 4.86241ZM11.3668 11.1898L3.63324 4.86241L2.36676 6.41033L10.1003 12.7378L11.3668 11.1898ZM12.6332 11.1898C12.2649 11.4912 11.7351 11.4912 11.3668 11.1898L10.1003 12.7378C11.2054 13.6419 12.7946 13.6419 13.8997 12.7378L12.6332 11.1898Z" fill="black"/>
</svg>
