<svg width="48" height="48" viewBox="0 0 48 48" fill="none" xmlns="http://www.w3.org/2000/svg">
<rect width="48" height="48" rx="4" fill="#00A380"/>
<path d="M24 38.363C31.9337 38.363 38.365 31.932 38.365 23.9998C38.365 16.0677 31.9338 9.637 24 9.637C16.066 9.637 9.635 16.0676 9.635 23.9998C9.635 31.9321 16.0661 38.363 24 38.363ZM24 40C15.1636 40 8 32.8366 8 23.9998C8 15.1631 15.1635 8 24 8C32.8363 8 40 15.1632 40 23.9998C40 32.8365 32.8362 40 24 40Z" fill="white"/>
<path fill-rule="evenodd" clip-rule="evenodd" d="M30.0999 26.3408C29.5456 26.3408 29.0966 25.8705 29.0966 25.2909C29.0966 24.7109 29.5458 24.2411 30.0999 24.2411C30.6539 24.2411 31.1032 24.711 31.1032 25.2909C31.1033 25.8707 30.6539 26.3408 30.0999 26.3408ZM20.0811 18.6641C20.1273 18.579 20.41 18.3857 20.766 18.3857H27.2653C27.6216 18.3857 27.904 18.579 27.9502 18.6641L29.049 21.9266H18.9823L20.0811 18.6641ZM17.9315 26.3408C17.3772 26.3408 16.928 25.8705 16.928 25.2909C16.928 24.7109 17.3774 24.2411 17.9315 24.2411C18.4856 24.2411 18.9345 24.711 18.9345 25.2909C18.9347 25.8707 18.4856 26.3408 17.9315 26.3408ZM29.4575 18.1024C29.1859 17.2964 28.264 16.7113 27.2653 16.7113H20.766C19.7673 16.7113 18.8452 17.2964 18.5738 18.1024L17.1127 22.4404C15.9941 23.1115 15.2383 24.3731 15.2383 25.8166V28.0977C15.2383 28.7261 15.7262 28.7403 15.8148 28.7403H16.6514V29.7724C16.6514 30.5124 17.2245 31.1118 17.9317 31.1118C18.6385 31.1118 19.2114 30.5122 19.2114 29.7724V28.7403H28.8199V29.7724C28.8199 30.5124 29.3929 31.1118 30.0999 31.1118C30.8068 31.1118 31.3799 30.5122 31.3799 29.7724V28.7403H32.2171C32.3057 28.7403 32.7929 28.7261 32.7929 28.1359V25.8166C32.793 24.373 32.037 23.1115 30.9186 22.4404L29.4575 18.1024Z" fill="white"/>
</svg>
