<svg width="64" height="64" viewBox="0 0 64 64" fill="none" xmlns="http://www.w3.org/2000/svg">
<mask id="mask0_3553_187" style="mask-type:alpha" maskUnits="userSpaceOnUse" x="0" y="0" width="64" height="64">
<circle cx="32" cy="32" r="32" fill="#D9D9D9"/>
<circle cx="32" cy="32" r="31.8741" stroke="#888888" stroke-opacity="0.24" stroke-width="0.251852"/>
</mask>
<g mask="url(#mask0_3553_187)">
<circle cx="32" cy="32" r="31.5" stroke="#888888" stroke-opacity="0.24"/>
<g opacity="0.5">
<path d="M34.9391 54.3991L39.8557 48.2735L37.2141 50.2731H33.8253L28.5291 48.0223C27.0878 47.4097 25.8891 46.3386 25.1189 44.975L22.0078 39.4673L25.4043 49.4515C25.5083 49.7574 25.7135 50.0187 25.9859 50.1925L33.0652 54.7079C33.6771 55.0983 34.4848 54.9652 34.9391 54.3991Z" fill="#E6E6E6"/>
<path d="M37.4287 50.5566L37.7819 50.2892L34.6618 54.1766C34.321 54.6011 33.7153 54.7009 33.2564 54.4082L33.2564 54.4082L26.1771 49.8928C26.1771 49.8928 26.1771 49.8928 26.1771 49.8928C25.9728 49.7624 25.8189 49.5664 25.7409 49.337L25.7409 49.337L23.5704 42.9566L24.8093 45.1499C25.618 46.5816 26.8766 47.7064 28.3901 48.3495L33.6863 50.6003L33.7529 50.6287H33.8253H37.2141H37.3335L37.4287 50.5566Z" stroke="#888888" stroke-opacity="0.24" stroke-width="0.711111"/>
</g>
<g opacity="0.5">
<path d="M37.0695 37.9558L35.7169 37.4401C33.9779 37.7407 31.5537 38.5095 30.7293 39.1794C30.1991 39.6102 29.724 40.9179 29.4524 41.7965C29.3189 42.2283 28.8345 42.4299 28.5438 42.084C27.484 40.8229 26.7624 38.1002 25.6716 36.3742C22.3831 33.7833 21.5229 29.8743 21.5229 29.8743C21.3512 31.0122 21.1347 36.1136 21.8045 38.793C22.6419 42.1422 24.7028 45.105 26.2486 46.6508C27.7944 48.1966 32.1434 50.0779 34.591 50.2067C37.0385 50.3356 37.9402 49.3694 40.1302 47.4372C41.882 45.8913 43.4861 40.6246 44.1087 38.6494C43.7361 39.2929 42.4221 40.7219 41.3762 41.7844C41.1049 42.0599 40.6973 41.7662 40.8435 41.4083C41.1187 40.7351 41.3838 39.9806 41.452 39.4352C41.6066 38.1986 39.4974 37.7622 38.4669 37.4401L37.6295 37.9558H37.0695Z" fill="#E6E6E6"/>
<path d="M28.2716 42.3127C28.5167 42.6044 28.8681 42.6751 29.1748 42.5674C29.4648 42.4655 29.6952 42.215 29.7921 41.9016L29.7921 41.9015C29.9259 41.4685 30.1078 40.9371 30.3185 40.4649C30.5372 39.9749 30.7603 39.6123 30.9535 39.4553L30.9535 39.4553C31.3114 39.1645 32.0684 38.8213 32.9941 38.5081C33.8708 38.2114 34.8517 37.957 35.682 37.8073L36.9428 38.288L37.004 38.3113H37.0695H37.6295H37.7302L37.816 38.2585L38.5167 37.827C38.608 37.8542 38.7032 37.8818 38.8009 37.9102C39.2681 38.0455 39.7954 38.1983 40.2507 38.4156C40.5497 38.5583 40.7817 38.7136 40.9279 38.881C41.0652 39.0381 41.1232 39.1991 41.0992 39.3911C41.0374 39.8851 40.7894 40.601 40.5144 41.2738L40.5144 41.2739C40.3772 41.6096 40.4987 41.9466 40.747 42.1235C41.001 42.3043 41.3664 42.3011 41.6295 42.0338L41.6295 42.0338C42.1279 41.5276 42.6876 40.9378 43.1796 40.3871C42.9063 41.2126 42.5789 42.1505 42.2125 43.0731C41.8665 43.9441 41.4883 44.7944 41.0915 45.5189C40.6913 46.2494 40.2863 46.8252 39.8949 47.1705C39.7462 47.3017 39.6043 47.4277 39.468 47.5486C38.5847 48.3324 37.9424 48.9024 37.2788 49.2873C36.541 49.7152 35.7739 49.9129 34.6097 49.8517C33.4469 49.7905 31.7926 49.3063 30.2217 48.6333C28.6477 47.959 27.2243 47.1237 26.5 46.3994C24.9903 44.8896 22.9682 41.9816 22.1495 38.7067L21.8045 38.793L22.1495 38.7067C21.8256 37.4112 21.7118 35.5023 21.7037 33.7539C21.7001 32.9865 21.7169 32.2593 21.7437 31.6392C21.8315 31.8492 21.9312 32.073 22.0437 32.3068C22.6787 33.6265 23.7313 35.2822 25.4028 36.6149C25.8662 37.3617 26.2637 38.298 26.6653 39.2442C26.7075 39.3437 26.7498 39.4433 26.7923 39.5428C27.2361 40.5843 27.701 41.6337 28.2716 42.3127ZM28.2716 42.3127L28.5438 42.084M28.2716 42.3127L28.5438 42.084M28.5438 42.084C28.8345 42.4299 29.3189 42.2283 29.4524 41.7965C29.724 40.9179 30.1991 39.6102 30.7293 39.1794C31.5537 38.5095 33.9779 37.7407 35.7169 37.4401L25.6716 36.3742C26.1652 37.1553 26.5832 38.1404 26.9912 39.1018C27.4847 40.265 27.9636 41.3935 28.5438 42.084Z" stroke="#888888" stroke-opacity="0.24" stroke-width="0.711111"/>
</g>
<path d="M38.7497 15.7356C41.3978 15.9837 42.8946 17.8878 43.2737 18.819C44.1276 16.0477 42.4887 13.9255 41.4723 13.3658C41.4093 11.3263 39.1707 9.48741 38.1304 9.01452L38.1108 9.00563C37.0826 8.53815 36.4906 8.26899 31.2484 8.37175C27.0283 8.45452 24.1999 11.8591 22.6828 13.721L18.8873 15.4925L16.9739 17.7846L17.5946 18.819L16.25 20.6809H17.5946V22.9565L19.1462 28.6455L20.9781 29.8666L21.4221 31.4383C21.091 27.2181 22.767 24.577 23.6635 23.922C23.5255 23.5772 23.1139 22.032 23.1139 20.8271C23.1139 19.0713 23.9385 17.7833 25.2832 16.7489C26.6279 15.7146 28.8667 14.8927 31.4784 15.7356C34.3058 16.6481 37.3705 16.0114 38.7497 15.7356Z" fill="#E6E6E6"/>
<path d="M38.7829 15.3816L38.731 15.3767L38.68 15.3869L38.63 15.3969C37.2199 15.6791 34.2823 16.2669 31.5877 15.3972C28.8438 14.5117 26.4851 15.3759 25.0664 16.4671L25.0664 16.4671C23.6569 17.5514 22.7584 18.9352 22.7584 20.8271C22.7584 21.4641 22.8664 22.1783 22.9888 22.7692C23.0746 23.1832 23.1707 23.5523 23.2482 23.8045C22.7624 24.2496 22.1908 25.0743 21.7507 26.2153C21.4069 27.1068 21.1383 28.2037 21.0526 29.489L19.4542 28.4235L17.9501 22.9089V20.6809V20.3253H17.5946H16.9453L17.8828 19.0271L18.0201 18.8371L17.8995 18.636L17.4088 17.8184L19.1095 15.7812L22.8332 14.0432L22.907 14.0088L22.9584 13.9456C24.4901 12.0658 27.2215 8.80636 31.2554 8.72724C33.8759 8.67587 35.3124 8.71823 36.2171 8.82783C37.0945 8.93412 37.4631 9.1017 37.9566 9.3261L37.9637 9.3293L37.9637 9.32932L37.9833 9.33821C38.4519 9.55122 39.2332 10.097 39.9038 10.8407C40.5767 11.5872 41.0892 12.4787 41.1169 13.3768L41.1232 13.5795L41.3008 13.6773C41.7318 13.9146 42.3472 14.5217 42.7506 15.4101C43.0569 16.0844 43.2363 16.9108 43.1214 17.845C42.3797 16.8183 40.939 15.5836 38.7829 15.3816Z" stroke="#888888" stroke-opacity="0.24" stroke-width="0.711111"/>
<mask id="path-10-inside-1_3553_187" fill="white">
<path fill-rule="evenodd" clip-rule="evenodd" d="M21.0641 35.6526C21.2499 35.5889 21.4521 35.6879 21.5157 35.8737C21.8298 36.7902 22.2699 39.3491 22.4491 42.4254C22.6758 46.3141 21.7376 50.9309 20.7846 53.1801C20.708 53.3609 20.4993 53.4454 20.3185 53.3687C20.1377 53.2921 20.0532 53.0835 20.1299 52.9027C21.0389 50.7572 21.9598 46.2499 21.7392 42.4667C21.5608 39.4054 21.1246 36.9258 20.843 36.1042C20.7794 35.9185 20.8784 35.7162 21.0641 35.6526Z"/>
</mask>
<path fill-rule="evenodd" clip-rule="evenodd" d="M21.0641 35.6526C21.2499 35.5889 21.4521 35.6879 21.5157 35.8737C21.8298 36.7902 22.2699 39.3491 22.4491 42.4254C22.6758 46.3141 21.7376 50.9309 20.7846 53.1801C20.708 53.3609 20.4993 53.4454 20.3185 53.3687C20.1377 53.2921 20.0532 53.0835 20.1299 52.9027C21.0389 50.7572 21.9598 46.2499 21.7392 42.4667C21.5608 39.4054 21.1246 36.9258 20.843 36.1042C20.7794 35.9185 20.8784 35.7162 21.0641 35.6526Z" fill="black"/>
<path d="M21.5157 35.8737L20.843 36.1042L20.843 36.1042L21.5157 35.8737ZM22.4491 42.4254L21.7392 42.4667L21.7392 42.4667L22.4491 42.4254ZM20.7846 53.1801L20.1298 52.9026L20.1298 52.9027L20.7846 53.1801ZM20.3185 53.3687L20.5961 52.714L20.5958 52.7139L20.3185 53.3687ZM20.1299 52.9027L20.7846 53.1802L20.7846 53.1801L20.1299 52.9027ZM21.7392 42.4667L21.0293 42.5081L21.0293 42.5081L21.7392 42.4667ZM20.843 36.1042L20.1703 36.3347L20.1703 36.3347L20.843 36.1042ZM21.2946 36.3253C21.1089 36.3889 20.9067 36.2901 20.843 36.1042L22.1885 35.6432C21.9975 35.0858 21.3908 34.789 20.8336 34.9799L21.2946 36.3253ZM20.843 36.1042C21.1246 36.9259 21.5608 39.4054 21.7392 42.4667L23.1591 42.384C22.9789 39.2928 22.535 36.6544 22.1884 35.6431L20.843 36.1042ZM21.7392 42.4667C21.9597 46.2499 21.0389 50.7572 20.1298 52.9026L21.4393 53.4575C22.4363 51.1045 23.3918 46.3784 23.1591 42.384L21.7392 42.4667ZM20.1298 52.9027C20.2064 52.7219 20.4151 52.6373 20.5961 52.714L20.0409 54.0234C20.5834 54.2535 21.2096 53.9999 21.4394 53.4574L20.1298 52.9027ZM20.5958 52.7139C20.7767 52.7905 20.8613 52.9993 20.7846 53.1802L19.4751 52.6251C19.2451 53.1677 19.4987 53.7938 20.0412 54.0235L20.5958 52.7139ZM20.7846 53.1801C21.7376 50.9309 22.6758 46.3142 22.4491 42.4254L21.0293 42.5081C21.2437 46.1857 20.3401 50.5836 19.4751 52.6252L20.7846 53.1801ZM22.4491 42.4254C22.2699 39.3491 21.8298 36.7902 21.5157 35.8737L20.1703 36.3347C20.4193 37.0615 20.8518 39.4617 21.0293 42.5081L22.4491 42.4254ZM21.5157 35.8737C21.5794 36.0594 21.4805 36.2616 21.2946 36.3253L20.8336 34.9799C20.2762 35.1709 19.9794 35.7775 20.1703 36.3347L21.5157 35.8737Z" fill="#888888" fill-opacity="0.24" mask="url(#path-10-inside-1_3553_187)"/>
<path fill-rule="evenodd" clip-rule="evenodd" d="M19.4622 28.6566C19.9548 29.0438 20.3205 29.6703 20.5107 30.1141C20.5881 30.2946 20.5044 30.5036 20.324 30.581C20.1435 30.6584 19.9345 30.5747 19.8571 30.3943C19.6887 30.0012 19.3818 29.498 19.0227 29.2157C18.8473 29.0778 18.6846 29.0123 18.5374 29.0092C18.3988 29.0062 18.2216 29.0574 18.0058 29.2588C17.7601 29.4882 17.5809 29.9178 17.5033 30.5359C17.4272 31.1427 17.4563 31.8754 17.5722 32.6417C17.8053 34.1839 18.3758 35.7767 19.0415 36.6657C19.5605 37.359 19.9663 37.4081 20.2204 37.3441C20.5282 37.2665 20.8066 36.9798 20.9653 36.7023C21.0628 36.5319 21.28 36.4727 21.4504 36.5702C21.6209 36.6677 21.6801 36.8849 21.5826 37.0553C21.3779 37.4131 20.9686 37.8888 20.3941 38.0336C19.7659 38.1919 19.0948 37.9234 18.4722 37.0919C17.7108 36.075 17.1121 34.3554 16.8691 32.748C16.7469 31.9395 16.7111 31.1381 16.7977 30.4474C16.8829 29.7682 17.094 29.1373 17.5205 28.739C17.8427 28.4383 18.1921 28.2906 18.5522 28.2982C18.9037 28.3056 19.2117 28.4598 19.4622 28.6566Z" fill="black"/>
<path d="M19.4622 28.6566C19.9548 29.0438 20.3205 29.6703 20.5107 30.1141C20.5881 30.2946 20.5044 30.5036 20.324 30.581C20.1435 30.6584 19.9345 30.5747 19.8571 30.3943M19.4622 28.6566C19.2117 28.4598 18.9037 28.3056 18.5522 28.2982M19.4622 28.6566L19.2425 28.9361C19.4637 29.1101 19.6608 29.3461 19.8242 29.5914M19.4622 28.6566L19.2424 28.9361C19.0294 28.7687 18.794 28.6589 18.5448 28.6537L17.7632 28.9989M18.5522 28.2982C18.1921 28.2906 17.8427 28.4383 17.5205 28.739C17.094 29.1373 16.8829 29.7682 16.7977 30.4474C16.7111 31.1381 16.7469 31.9395 16.8691 32.748C17.1121 34.3554 17.7108 36.075 18.4722 37.0919C19.0948 37.9234 19.7659 38.1919 20.3941 38.0336C20.9686 37.8888 21.3779 37.4131 21.5826 37.0553C21.6801 36.8849 21.6209 36.6677 21.4504 36.5702C21.28 36.4727 21.0628 36.5319 20.9653 36.7023C20.8066 36.9798 20.5282 37.2665 20.2204 37.3441C19.9663 37.4081 19.5605 37.359 19.0415 36.6657M18.5522 28.2982L18.5447 28.6537M18.5522 28.2982L18.5447 28.6537M19.0415 36.6657C18.3758 35.7767 17.8053 34.1839 17.5722 32.6417C17.4563 31.8754 17.4272 31.1427 17.5033 30.5359C17.5809 29.9178 17.7601 29.4882 18.0058 29.2588M19.0415 36.6657L18.7568 36.8788M19.0415 36.6657L18.7569 36.8788L18.7568 36.8788M18.0058 29.2588C18.2216 29.0574 18.3988 29.0062 18.5374 29.0092C18.6846 29.0123 18.8473 29.0778 19.0227 29.2157C19.3818 29.498 19.6887 30.0012 19.8571 30.3943M18.0058 29.2588L17.7632 28.9989M18.0058 29.2588L17.7632 28.9989M19.8571 30.3943L20.1839 30.2542L20.1839 30.2542C20.1839 30.2542 20.1839 30.2542 20.1839 30.2542C20.1839 30.2542 20.1839 30.2542 20.1839 30.2542C20.0977 30.0531 19.9753 29.8183 19.8242 29.5914M19.8571 30.3943L20.1839 30.2542L20.1839 30.2542C20.0977 30.0531 19.9753 29.8183 19.8242 29.5914M19.8242 29.5914C19.6607 29.3461 19.4637 29.1101 19.2424 28.9361L19.2424 28.9361C19.0292 28.7685 18.7939 28.659 18.5449 28.6537L18.5448 28.6537C18.2959 28.6484 18.0325 28.7475 17.7632 28.9989M17.7632 28.9989L17.7632 28.9989M17.7632 28.9989C17.7402 29.0204 17.7179 29.0428 17.6962 29.0663M17.7632 28.9989L17.6962 29.0663M18.7568 36.8788C18.4893 36.5214 18.2398 36.0652 18.02 35.5514C18.2398 36.0652 18.4893 36.5215 18.7568 36.8788L18.4766 37.0887L18.7568 36.8788C18.7757 36.904 18.7945 36.9285 18.8133 36.9524L18.7568 36.8788ZM18.5447 28.6537C18.2957 28.6485 18.0323 28.7476 17.7632 28.9989L18.5447 28.6537ZM17.6962 29.0663C17.7179 29.0428 17.7402 29.0204 17.7632 28.9989L17.6962 29.0663ZM20.3072 37.6888C20.0872 37.7443 19.8427 37.7327 19.5817 37.6119C19.5818 37.6119 19.5818 37.612 19.5819 37.612C19.8596 37.7395 20.1082 37.739 20.3072 37.6889L20.3072 37.6889C20.3073 37.6889 20.3073 37.6889 20.3073 37.6889C20.7481 37.5778 21.092 37.1969 21.2739 36.8789L21.2739 36.8788C21.2739 36.8788 21.2739 36.8788 21.2739 36.8788C21.092 37.1968 20.7481 37.5777 20.3073 37.6888L20.3072 37.6888C20.3072 37.6888 20.3072 37.6888 20.3072 37.6888Z" stroke="#888888" stroke-opacity="0.24" stroke-width="0.711111"/>
<mask id="path-14-inside-2_3553_187" fill="white">
<path fill-rule="evenodd" clip-rule="evenodd" d="M29.7084 8.52701C31.2032 8.10247 33.1175 7.55876 36.253 8.05604C38.4223 8.40007 39.8525 9.43986 40.7441 10.7177C41.629 11.9855 41.9701 13.4667 42.0119 14.6922C42.0186 14.8885 41.8649 15.053 41.6686 15.0597C41.4724 15.0664 41.3079 14.9127 41.3011 14.7164C41.2628 13.5917 40.9486 12.2532 40.161 11.1246C39.3803 10.0059 38.1208 9.07221 36.1416 8.75833C33.1643 8.28615 31.3808 8.79204 29.902 9.21145C29.7113 9.26549 29.5256 9.31819 29.3431 9.36711C28.2165 9.7061 26.5016 10.5215 25.0353 11.804C23.5687 13.087 22.3807 14.8097 22.2338 16.9645C22.2204 17.1604 22.0507 17.3084 21.8548 17.295C21.6589 17.2817 21.5109 17.112 21.5243 16.9161C21.6882 14.5119 23.0133 12.6281 24.5671 11.2688C26.1193 9.91104 27.9295 9.04889 29.1437 8.68452L29.1539 8.6816C29.333 8.63367 29.5172 8.58133 29.7084 8.52701ZM41.8005 16.4114C41.9422 16.2755 42.1673 16.2802 42.3032 16.4219C43.8765 18.0626 44.7031 20.4098 45.1056 22.6532C45.5091 24.9026 45.4946 27.0952 45.3483 28.4754C45.3457 28.4998 45.3407 28.5238 45.3331 28.5471C45.0255 29.5007 45.0581 30.6321 45.1613 31.7662C45.1859 32.0365 45.214 32.3038 45.2418 32.5674L45.2452 32.5991C45.2739 32.872 45.3021 33.1413 45.3246 33.4005C45.3691 33.9155 45.3929 34.4112 45.3484 34.8432C45.188 36.4036 44.6058 38.6237 44.0728 40.2892C43.8011 41.1383 42.9118 43.4698 41.593 45.679C40.9334 46.7839 40.1589 47.8709 39.2911 48.7279C38.4261 49.5822 37.4422 50.2337 36.3629 50.4166C33.1169 50.9665 29.9459 49.6437 28.7528 48.9097C28.5855 48.8069 28.5334 48.5879 28.6363 48.4206C28.7391 48.2534 28.9582 48.2012 29.1254 48.3041C30.2323 48.985 33.2271 50.2266 36.2441 49.7155C37.1219 49.5667 37.9792 49.0241 38.7914 48.2219C39.6009 47.4225 40.34 46.3906 40.9824 45.3145C42.2677 43.1615 43.1365 40.8819 43.3956 40.0725C43.9241 38.4206 44.4883 36.2564 44.6411 34.7704C44.6783 34.4087 44.6599 33.9686 44.6161 33.4618C44.5944 33.2102 44.5668 32.9474 44.538 32.6736L44.5345 32.6404C44.5068 32.3779 44.4782 32.1061 44.4531 31.8305C44.3507 30.7036 44.3016 29.4593 44.6449 28.3649C44.7814 27.0418 44.7925 24.9358 44.4056 22.7788C44.0141 20.5963 43.2234 18.409 41.7899 16.9141C41.654 16.7724 41.6587 16.5473 41.8005 16.4114Z"/>
</mask>
<path fill-rule="evenodd" clip-rule="evenodd" d="M29.7084 8.52701C31.2032 8.10247 33.1175 7.55876 36.253 8.05604C38.4223 8.40007 39.8525 9.43986 40.7441 10.7177C41.629 11.9855 41.9701 13.4667 42.0119 14.6922C42.0186 14.8885 41.8649 15.053 41.6686 15.0597C41.4724 15.0664 41.3079 14.9127 41.3011 14.7164C41.2628 13.5917 40.9486 12.2532 40.161 11.1246C39.3803 10.0059 38.1208 9.07221 36.1416 8.75833C33.1643 8.28615 31.3808 8.79204 29.902 9.21145C29.7113 9.26549 29.5256 9.31819 29.3431 9.36711C28.2165 9.7061 26.5016 10.5215 25.0353 11.804C23.5687 13.087 22.3807 14.8097 22.2338 16.9645C22.2204 17.1604 22.0507 17.3084 21.8548 17.295C21.6589 17.2817 21.5109 17.112 21.5243 16.9161C21.6882 14.5119 23.0133 12.6281 24.5671 11.2688C26.1193 9.91104 27.9295 9.04889 29.1437 8.68452L29.1539 8.6816C29.333 8.63367 29.5172 8.58133 29.7084 8.52701ZM41.8005 16.4114C41.9422 16.2755 42.1673 16.2802 42.3032 16.4219C43.8765 18.0626 44.7031 20.4098 45.1056 22.6532C45.5091 24.9026 45.4946 27.0952 45.3483 28.4754C45.3457 28.4998 45.3407 28.5238 45.3331 28.5471C45.0255 29.5007 45.0581 30.6321 45.1613 31.7662C45.1859 32.0365 45.214 32.3038 45.2418 32.5674L45.2452 32.5991C45.2739 32.872 45.3021 33.1413 45.3246 33.4005C45.3691 33.9155 45.3929 34.4112 45.3484 34.8432C45.188 36.4036 44.6058 38.6237 44.0728 40.2892C43.8011 41.1383 42.9118 43.4698 41.593 45.679C40.9334 46.7839 40.1589 47.8709 39.2911 48.7279C38.4261 49.5822 37.4422 50.2337 36.3629 50.4166C33.1169 50.9665 29.9459 49.6437 28.7528 48.9097C28.5855 48.8069 28.5334 48.5879 28.6363 48.4206C28.7391 48.2534 28.9582 48.2012 29.1254 48.3041C30.2323 48.985 33.2271 50.2266 36.2441 49.7155C37.1219 49.5667 37.9792 49.0241 38.7914 48.2219C39.6009 47.4225 40.34 46.3906 40.9824 45.3145C42.2677 43.1615 43.1365 40.8819 43.3956 40.0725C43.9241 38.4206 44.4883 36.2564 44.6411 34.7704C44.6783 34.4087 44.6599 33.9686 44.6161 33.4618C44.5944 33.2102 44.5668 32.9474 44.538 32.6736L44.5345 32.6404C44.5068 32.3779 44.4782 32.1061 44.4531 31.8305C44.3507 30.7036 44.3016 29.4593 44.6449 28.3649C44.7814 27.0418 44.7925 24.9358 44.4056 22.7788C44.0141 20.5963 43.2234 18.409 41.7899 16.9141C41.654 16.7724 41.6587 16.5473 41.8005 16.4114Z" fill="black"/>
<path d="M29.7084 8.52701L29.5141 7.84295L29.514 7.84299L29.7084 8.52701ZM36.253 8.05604L36.1416 8.75837L36.1416 8.75837L36.253 8.05604ZM40.7441 10.7177L40.161 11.1246L40.161 11.1246L40.7441 10.7177ZM42.0119 14.6922L42.7226 14.668L42.7226 14.6679L42.0119 14.6922ZM41.3011 14.7164L40.5904 14.7407L40.5904 14.7409L41.3011 14.7164ZM40.161 11.1246L40.7442 10.7177L40.7442 10.7177L40.161 11.1246ZM36.1416 8.75833L36.0302 9.46066L36.0302 9.46066L36.1416 8.75833ZM29.902 9.21145L30.0959 9.89562L30.096 9.89558L29.902 9.21145ZM29.3431 9.36711L29.159 8.68024L29.1485 8.68304L29.1382 8.68616L29.3431 9.36711ZM25.0353 11.804L24.5671 11.2688L24.5671 11.2688L25.0353 11.804ZM22.2338 16.9645L22.9432 17.0129L22.9432 17.0129L22.2338 16.9645ZM21.8548 17.295L21.9032 16.5855L21.903 16.5855L21.8548 17.295ZM21.5243 16.9161L22.2337 16.9645L22.2337 16.9645L21.5243 16.9161ZM24.5671 11.2688L24.0989 10.7336L24.0989 10.7336L24.5671 11.2688ZM29.1437 8.68452L28.949 8.00051L28.9393 8.00342L29.1437 8.68452ZM29.1539 8.6816L28.97 7.99459L28.9592 7.99767L29.1539 8.6816ZM41.8005 16.4114L41.3083 15.8981L41.3082 15.8982L41.8005 16.4114ZM42.3032 16.4219L41.7899 16.9141L41.7899 16.9141L42.3032 16.4219ZM45.1056 22.6532L45.8055 22.5277L45.8055 22.5277L45.1056 22.6532ZM45.3483 28.4754L46.0553 28.5519L46.0555 28.5504L45.3483 28.4754ZM45.3331 28.5471L44.6565 28.3285L44.6564 28.3288L45.3331 28.5471ZM45.1613 31.7662L44.4531 31.8306L44.4531 31.8307L45.1613 31.7662ZM45.2418 32.5674L45.949 32.4929L45.949 32.4928L45.2418 32.5674ZM45.2452 32.5991L45.9524 32.5246L45.9524 32.5246L45.2452 32.5991ZM45.3246 33.4005L46.0331 33.3393L46.0331 33.3391L45.3246 33.4005ZM45.3484 34.8432L44.641 34.7704L44.641 34.7704L45.3484 34.8432ZM44.0728 40.2892L43.3956 40.0725L43.3955 40.0725L44.0728 40.2892ZM41.593 45.679L40.9824 45.3145L40.9824 45.3145L41.593 45.679ZM39.2911 48.7279L38.7914 48.2219L38.7914 48.222L39.2911 48.7279ZM36.3629 50.4166L36.2441 49.7154L36.2441 49.7155L36.3629 50.4166ZM28.7528 48.9097L29.1254 48.304L29.1252 48.3039L28.7528 48.9097ZM28.6363 48.4206L29.242 48.7932L29.2421 48.7931L28.6363 48.4206ZM29.1254 48.3041L28.7528 48.9097L28.7528 48.9097L29.1254 48.3041ZM36.2441 49.7155L36.3629 50.4166L36.3629 50.4166L36.2441 49.7155ZM38.7914 48.2219L38.2917 47.716L38.2917 47.716L38.7914 48.2219ZM40.9824 45.3145L40.3718 44.95L40.3718 44.95L40.9824 45.3145ZM43.3956 40.0725L44.0728 40.2892L44.0728 40.2892L43.3956 40.0725ZM44.6411 34.7704L45.3485 34.8432L45.3485 34.8431L44.6411 34.7704ZM44.6161 33.4618L45.3246 33.4006L45.3246 33.4006L44.6161 33.4618ZM44.538 32.6736L43.8307 32.7477L43.8308 32.7482L44.538 32.6736ZM44.5345 32.6404L45.2417 32.5663L45.2417 32.5658L44.5345 32.6404ZM44.4531 31.8305L43.7449 31.8949L43.7449 31.8951L44.4531 31.8305ZM44.6449 28.3649L45.3234 28.5777L45.3449 28.5092L45.3523 28.4378L44.6449 28.3649ZM44.4056 22.7788L45.1056 22.6533L45.1056 22.6532L44.4056 22.7788ZM41.7899 16.9141L42.3032 16.422L42.3031 16.4218L41.7899 16.9141ZM29.9027 9.21106C31.3614 8.79679 33.1575 8.28511 36.1416 8.75837L36.3643 7.3537C33.0774 6.8324 31.045 7.40816 29.5141 7.84295L29.9027 9.21106ZM36.1416 8.75837C38.1208 9.07226 39.3803 10.0059 40.161 11.1246L41.3273 10.3107C40.3246 8.87382 38.7238 7.72789 36.3643 7.3537L36.1416 8.75837ZM40.161 11.1246C40.9486 12.2532 41.2628 13.5916 41.3012 14.7164L42.7226 14.6679C42.6773 13.3418 42.3093 11.7178 41.3273 10.3107L40.161 11.1246ZM41.3012 14.7164C41.2945 14.5203 41.4481 14.3557 41.6444 14.349L41.6928 15.7704C42.2817 15.7503 42.7426 15.2567 42.7226 14.668L41.3012 14.7164ZM41.6444 14.349C41.8408 14.3423 42.0051 14.4961 42.0118 14.692L40.5904 14.7409C40.6107 15.3294 41.1039 15.7905 41.6928 15.7704L41.6444 14.349ZM42.0118 14.6922C41.9701 13.4667 41.6289 11.9854 40.7442 10.7177L39.5779 11.5316C40.2684 12.521 40.5555 13.7167 40.5904 14.7407L42.0118 14.6922ZM40.7442 10.7177C39.8524 9.43989 38.4224 8.40004 36.253 8.056L36.0302 9.46066C37.8193 9.74439 38.9081 10.5719 39.5779 11.5316L40.7442 10.7177ZM36.253 8.056C33.1245 7.55984 31.2231 8.09761 29.708 8.52732L30.096 9.89558C31.5386 9.48646 33.2041 9.01246 36.0302 9.46066L36.253 8.056ZM29.7081 8.52728C29.5162 8.58166 29.3357 8.63288 29.159 8.68024L29.5272 10.054C29.7156 10.0035 29.9064 9.94933 30.0959 9.89562L29.7081 8.52728ZM29.1382 8.68616C27.9243 9.05142 26.1171 9.91298 24.5671 11.2688L25.5035 12.3393C26.886 11.1299 28.5087 10.3608 29.548 10.0481L29.1382 8.68616ZM24.5671 11.2688C23.0131 12.6282 21.6882 14.512 21.5243 16.9161L22.9432 17.0129C23.0731 15.1073 24.1243 13.5458 25.5035 12.3392L24.5671 11.2688ZM21.5243 16.9161C21.5377 16.7201 21.7073 16.5722 21.9032 16.5855L21.8064 18.0045C22.3941 18.0446 22.9031 17.6007 22.9432 17.0129L21.5243 16.9161ZM21.903 16.5855C22.0992 16.5988 22.2471 16.7687 22.2337 16.9645L20.8148 16.8677C20.7747 17.4554 21.2186 17.9646 21.8066 18.0045L21.903 16.5855ZM22.2337 16.9645C22.3806 14.8098 23.5686 13.0871 25.0353 11.8041L24.0989 10.7336C22.4579 12.1691 20.9957 14.2141 20.8148 16.8678L22.2337 16.9645ZM25.0353 11.8041C26.5037 10.5196 28.2215 9.70371 29.3481 9.36562L28.9393 8.00342C27.6376 8.39407 25.735 9.30248 24.0989 10.7336L25.0353 11.8041ZM29.3384 9.36845L29.3486 9.36553L28.9592 7.99767L28.949 8.00058L29.3384 9.36845ZM29.3378 9.36853C29.523 9.31894 29.7126 9.26508 29.9028 9.21102L29.514 7.84299C29.3219 7.89758 29.1429 7.9484 28.9701 7.99467L29.3378 9.36853ZM42.2926 16.9247C42.151 17.0605 41.9259 17.0559 41.7899 16.9141L42.8164 15.9297C42.4086 15.5044 41.7334 15.4905 41.3083 15.8981L42.2926 16.9247ZM41.7899 16.9141C43.2234 18.4091 44.0141 20.5963 44.4056 22.7788L45.8055 22.5277C45.3921 20.2233 44.5295 17.7162 42.8164 15.9297L41.7899 16.9141ZM44.4056 22.7788C44.796 24.9552 44.7812 27.0798 44.6412 28.4005L46.0555 28.5504C46.2081 27.1106 46.2221 24.8501 45.8055 22.5277L44.4056 22.7788ZM44.6414 28.399C44.6438 28.3764 44.6486 28.3527 44.6565 28.3285L46.0098 28.7658C46.0327 28.6949 46.0476 28.6231 46.0553 28.5519L44.6414 28.399ZM44.6564 28.3288C44.3005 29.432 44.3495 30.6915 44.4531 31.8306L45.8694 31.7018C45.7668 30.5727 45.7505 29.5695 46.0099 28.7655L44.6564 28.3288ZM44.4531 31.8307C44.4782 32.1068 44.5069 32.3791 44.5346 32.642L45.949 32.4928C45.9211 32.2285 45.8935 31.9662 45.8694 31.7017L44.4531 31.8307ZM44.5346 32.6419L44.538 32.6736L45.9524 32.5246L45.949 32.4929L44.5346 32.6419ZM44.538 32.6736C44.5668 32.9474 44.5943 33.2103 44.6161 33.462L46.0331 33.3391C46.0099 33.0723 45.981 32.7965 45.9524 32.5246L44.538 32.6736ZM44.6161 33.4618C44.6599 33.9684 44.6783 34.4086 44.641 34.7704L46.0558 34.916C46.1075 34.4139 46.0783 33.8625 46.0331 33.3393L44.6161 33.4618ZM44.641 34.7704C44.4883 36.2565 43.9241 38.4207 43.3956 40.0725L44.7501 40.5059C45.2875 38.8267 45.8877 36.5507 46.0558 34.9159L44.641 34.7704ZM43.3955 40.0725C43.1365 40.882 42.2676 43.1615 40.9824 45.3145L42.2036 46.0435C43.556 43.7781 44.4657 41.3947 44.7501 40.5059L43.3955 40.0725ZM40.9824 45.3145C40.34 46.3906 39.6009 47.4225 38.7914 48.2219L39.7908 49.2339C40.717 48.3192 41.5268 47.1771 42.2036 46.0435L40.9824 45.3145ZM38.7914 48.222C37.9791 49.0242 37.1219 49.5668 36.2441 49.7154L36.4817 51.1177C37.7626 50.9007 38.8731 50.1402 39.7908 49.2338L38.7914 48.222ZM36.2441 49.7155C33.2272 50.2266 30.2324 48.985 29.1254 48.304L28.3802 49.5154C29.6594 50.3023 33.0066 51.7065 36.4817 51.1177L36.2441 49.7155ZM29.1252 48.3039C29.2929 48.407 29.3447 48.6262 29.242 48.7932L28.0306 48.048C27.7221 48.5495 27.8782 49.2068 28.3804 49.5155L29.1252 48.3039ZM29.2421 48.7931C29.1391 48.9605 28.92 49.0126 28.7528 48.9097L29.498 47.6984C28.9963 47.3897 28.3391 47.5462 28.0305 48.0482L29.2421 48.7931ZM28.7528 48.9097C29.946 49.6438 33.1169 50.9665 36.3629 50.4166L36.1253 49.0144C33.3373 49.4867 30.5187 48.3263 29.498 47.6984L28.7528 48.9097ZM36.3629 50.4166C37.4422 50.2337 38.426 49.5823 39.2911 48.7279L38.2917 47.716C37.5323 48.466 36.8017 48.8997 36.1253 49.0144L36.3629 50.4166ZM39.2911 48.7279C40.159 47.8708 40.9334 46.7838 41.593 45.679L40.3718 44.95C39.7466 45.9974 39.0429 46.9742 38.2917 47.716L39.2911 48.7279ZM41.593 45.679C42.9118 43.4698 43.8011 41.1383 44.0728 40.2892L42.7183 39.8557C42.4719 40.6255 41.6235 42.8533 40.3718 44.95L41.593 45.679ZM44.0728 40.2892C44.6058 38.6237 45.188 36.4036 45.3485 34.8432L43.9337 34.6977C43.7885 36.1093 43.2425 38.2176 42.7183 39.8557L44.0728 40.2892ZM45.3485 34.8431C45.3929 34.4112 45.3691 33.9153 45.3246 33.4006L43.9076 33.5231C43.9508 34.0218 43.9637 34.4062 43.9337 34.6977L45.3485 34.8431ZM45.3246 33.4006C45.3022 33.1413 45.2739 32.872 45.2452 32.5991L43.8308 32.7482C43.8597 33.0229 43.8866 33.2792 43.9077 33.5231L45.3246 33.4006ZM45.2452 32.5996L45.2417 32.5663L43.8272 32.7144L43.8307 32.7477L45.2452 32.5996ZM45.2417 32.5658C45.2139 32.3026 45.1858 32.0358 45.1612 31.766L43.7449 31.8951C43.7705 32.1764 43.7997 32.4532 43.8273 32.7149L45.2417 32.5658ZM45.1613 31.7662C45.0594 30.6452 45.0261 29.5256 45.3234 28.5777L43.9664 28.152C43.5771 29.3929 43.6419 30.762 43.7449 31.8949L45.1613 31.7662ZM45.3523 28.4378C45.4948 27.0561 45.5055 24.8828 45.1056 22.6533L43.7057 22.9044C44.0796 24.9887 44.068 27.0275 43.9376 28.2919L45.3523 28.4378ZM45.1056 22.6532C44.7031 20.4098 43.8764 18.0626 42.3032 16.422L41.2767 17.4063C42.5704 18.7554 43.3251 20.7828 43.7057 22.9044L45.1056 22.6532ZM42.3031 16.4218C42.4393 16.5638 42.4342 16.7889 42.2928 16.9245L41.3082 15.8982C40.8833 16.3058 40.8687 16.981 41.2768 17.4064L42.3031 16.4218Z" fill="#888888" fill-opacity="0.24" mask="url(#path-14-inside-2_3553_187)"/>
<path fill-rule="evenodd" clip-rule="evenodd" d="M23.0817 13.7671C23.1149 13.9805 22.9688 14.1804 22.7554 14.2137C22.4328 14.2639 21.9759 14.4345 21.4337 14.7038C20.8993 14.9691 20.3095 15.3164 19.729 15.6967C18.6947 16.3742 17.7215 17.1353 17.1566 17.6968L17.835 18.8057C17.9197 18.9441 17.9101 19.1205 17.8109 19.2489L17.0548 20.2276H17.5014C17.6051 20.2275 17.7046 20.2688 17.778 20.3421C17.8513 20.4155 17.8925 20.515 17.8925 20.6187V23.1894L19.5385 28.711C19.6003 28.918 19.4825 29.1358 19.2755 29.1976C19.0685 29.2593 18.8506 29.1415 18.789 28.9345L17.1266 23.3581C17.1158 23.3219 17.1103 23.2842 17.1103 23.2464V21.0098H16.2583C16.1091 21.0099 15.973 20.9251 15.9073 20.7912C15.8415 20.6572 15.8576 20.4977 15.9488 20.3796L17.0271 18.9839L16.3325 17.8484C16.2423 17.701 16.2595 17.5119 16.375 17.3832C16.9538 16.738 18.1109 15.8215 19.3004 15.0423C19.8992 14.6501 20.5165 14.2859 21.0859 14.0032C21.6476 13.7242 22.1912 13.5099 22.635 13.4408C22.8484 13.4075 23.0484 13.5536 23.0817 13.7671Z" fill="black"/>
<path d="M17.1266 23.3581L18.789 28.9345C18.8506 29.1415 19.0685 29.2593 19.2755 29.1976C19.4825 29.1358 19.6003 28.918 19.5385 28.711L17.8925 23.1894V20.6187C17.8925 20.515 17.8513 20.4155 17.778 20.3421C17.7052 20.2694 17.6068 20.2282 17.5041 20.2276L17.5014 20.2311L17.5014 20.2311L17.3361 20.445L17.0548 20.2276V19.872H17.3295L22.635 13.4408C22.1912 13.5099 21.6476 13.7242 21.0859 14.0032C20.5165 14.2859 19.8992 14.6501 19.3004 15.0423C18.1109 15.8215 16.9538 16.738 16.375 17.3832C16.2595 17.5119 16.2423 17.701 16.3325 17.8484L17.0271 18.9839L15.9488 20.3796C15.8576 20.4977 15.8415 20.6572 15.9073 20.7912C15.973 20.9251 16.1091 21.0099 16.2583 21.0098H16.7548H17.1103V21.3654V23.2464C17.1103 23.2842 17.1158 23.3219 17.1266 23.3581ZM17.1266 23.3581L17.4673 23.2566L19.1297 28.8329L19.1297 28.833C19.1353 28.8517 19.155 28.8625 19.1739 28.8568C19.1927 28.8512 19.2034 28.8314 19.1978 28.8126L19.1978 28.8126L17.5518 23.2909L17.537 23.2412V23.1894V20.6187C17.537 20.6093 17.5333 20.6002 17.5264 20.5934L17.7779 20.3421L17.5267 20.5936C17.5199 20.5868 17.5108 20.5831 17.5016 20.5832H17.5014H17.0548H16.3308L16.7734 20.0102L17.5295 19.0315M17.1266 23.3581L17.4673 23.2565C17.4664 23.2533 17.4659 23.2499 17.4659 23.2464V21.0098V20.6543H17.1103H16.2583H16.2582C16.2448 20.6543 16.2324 20.6467 16.2264 20.6344C16.2204 20.6222 16.2219 20.6078 16.2302 20.597M17.5295 19.0315L17.8096 19.2479L17.5295 19.0315L17.5295 19.0315ZM17.5295 19.0315C17.5386 19.0198 17.5394 19.0038 17.5317 18.9913L17.5317 18.9913L16.8533 17.8823L16.7067 17.6426L16.906 17.4446C17.4938 16.8603 18.4882 16.0843 19.5342 15.3992L19.5342 15.3992C20.123 15.0136 20.7253 14.6586 21.2756 14.3853L21.2756 14.3853C21.8265 14.1117 22.3228 13.9212 22.7006 13.8624M22.7006 13.8624L22.7553 14.213L22.7007 13.8624C22.7007 13.8624 22.7007 13.8624 22.7006 13.8624ZM22.7006 13.8624C22.72 13.8594 22.7333 13.8412 22.7303 13.8218M22.7303 13.8218L23.0815 13.7671L22.7303 13.8218C22.7303 13.8218 22.7303 13.8218 22.7303 13.8218ZM22.7303 13.8218C22.7273 13.8023 22.7091 13.7891 22.6898 13.7921L22.6897 13.7921C22.301 13.8527 21.7967 14.0471 21.244 14.3216L21.244 14.3216C20.6905 14.5965 20.0857 14.9529 19.4952 15.3397C18.315 16.1129 17.1879 17.0095 16.6396 17.6206L16.6396 17.6207C16.6291 17.6323 16.6276 17.6495 16.6358 17.6628L16.6358 17.6629L17.3304 18.7984L17.4583 19.0074L17.3085 19.2013L16.2302 20.597M16.2302 20.597L15.9495 20.3802L16.2301 20.597L16.2302 20.597Z" stroke="#888888" stroke-opacity="0.24" stroke-width="0.711111"/>
<path fill-rule="evenodd" clip-rule="evenodd" d="M41.3024 12.9413C41.4085 12.7761 41.6285 12.7281 41.7937 12.8341C44.6663 14.6773 44.282 17.8199 44.087 19.1837C44.0593 19.378 43.8791 19.5131 43.6847 19.4853C43.4903 19.4575 43.3553 19.2774 43.3831 19.0831C43.5815 17.6944 43.8705 15.0116 41.4097 13.4326C41.2444 13.3266 41.1964 13.1066 41.3024 12.9413Z" fill="black"/>
<path d="M43.8448 18.1439C43.9458 16.6434 43.7357 14.5149 41.6212 13.1459C43.7357 14.5148 43.9459 16.6434 43.8448 18.1439Z" stroke="#888888" stroke-opacity="0.24" stroke-width="0.711111"/>
<path fill-rule="evenodd" clip-rule="evenodd" d="M34.2996 9.73368C34.3236 9.53876 34.501 9.40024 34.6959 9.4242C36.6184 9.66086 38.0473 10.7252 38.9781 11.9575C39.9008 13.1791 40.3622 14.6034 40.3125 15.6174C40.3028 15.8135 40.1361 15.9648 39.94 15.9552C39.7438 15.9455 39.5926 15.7788 39.6023 15.5826C39.6419 14.7735 39.2589 13.5091 38.4107 12.3862C37.5708 11.2741 36.3026 10.3385 34.609 10.13C34.4141 10.106 34.2756 9.92859 34.2996 9.73368Z" fill="black"/>
<path d="M40.3125 15.6174L39.9574 15.5999C40.002 14.6884 39.5798 13.3441 38.6944 12.1719C37.8713 11.082 36.6478 10.1411 35.027 9.83536C36.6477 10.1411 37.8713 11.082 38.6944 12.1718L38.6944 12.1718C39.5799 13.3441 40.0021 14.6885 39.9574 15.6L39.9574 15.6L39.9573 15.6001L39.9573 15.6001L39.94 15.9552L39.9575 15.6001L39.9574 15.6002L39.9574 15.6C39.9574 15.6 39.9574 15.6 39.9574 15.6L40.3125 15.6174ZM40.3125 15.6174C40.3028 15.8135 40.1361 15.9648 39.94 15.9552C39.7438 15.9455 39.5926 15.7788 39.6023 15.5826L34.2996 9.73368C34.3236 9.53876 34.501 9.40024 34.6959 9.4242C36.6184 9.66086 38.0473 10.7252 38.9781 11.9575C39.9008 13.1791 40.3622 14.6034 40.3125 15.6174Z" stroke="#888888" stroke-opacity="0.24" stroke-width="0.711111"/>
<path fill-rule="evenodd" clip-rule="evenodd" d="M34.9479 11.3538C36.563 12.3317 37.5411 13.7619 38.0513 14.7731C38.1397 14.9484 38.0693 15.1623 37.8941 15.2507C37.7187 15.3392 37.5049 15.2688 37.4164 15.0935C36.9436 14.1563 36.044 12.8488 34.5796 11.9621C33.1272 11.0827 31.0867 10.597 28.2793 11.3456C28.0895 11.3963 27.8947 11.2835 27.8441 11.0938C27.7935 10.904 27.9064 10.7092 28.0961 10.6586C31.0798 9.86291 33.3208 10.3687 34.9479 11.3538Z" fill="black"/>
<path d="M37.7338 14.9333L37.7338 14.9333C37.6724 14.8115 37.604 14.6836 37.5283 14.5511C37.604 14.6836 37.6724 14.8115 37.7338 14.9333Z" stroke="#888888" stroke-opacity="0.24" stroke-width="0.711111"/>
<path fill-rule="evenodd" clip-rule="evenodd" d="M28.7297 12.2275C31.5673 11.6869 33.8775 13.0181 34.721 14.1954C34.8353 14.355 34.7986 14.5771 34.639 14.6915C34.4793 14.8059 34.2572 14.7692 34.1429 14.6095C33.4622 13.6595 31.4305 12.4368 28.8628 12.9261C26.5935 13.3584 25.5359 15.089 24.8242 16.2536C24.7778 16.3296 24.7329 16.4031 24.6892 16.4737C24.5858 16.6407 24.3667 16.6922 24.1997 16.5889C24.0327 16.4856 23.9812 16.2664 24.0845 16.0995C24.1292 16.0273 24.1761 15.9501 24.2255 15.8688C24.9282 14.7129 26.1393 12.721 28.7297 12.2275Z" fill="black"/>
<path d="M25.7881 14.293C25.2358 14.8955 24.8404 15.5419 24.5294 16.0534L25.7881 14.293ZM25.7881 14.293C25.2388 14.8933 24.8455 15.5369 24.534 16.0467L24.5208 16.0682L24.5207 16.0684C24.4744 16.1443 24.43 16.217 24.3869 16.2865L24.3869 16.2865C24.4324 16.213 24.48 16.1347 24.5293 16.0535L25.7881 14.293ZM34.4252 14.3931C33.6571 13.3314 31.491 12.0633 28.7963 12.5768L28.7963 12.5768C31.4911 12.0634 33.6572 13.3313 34.4252 14.3931Z" stroke="#888888" stroke-opacity="0.24" stroke-width="0.711111"/>
<path fill-rule="evenodd" clip-rule="evenodd" d="M32.0737 14.768C32.0942 14.788 32.1132 14.8066 32.1308 14.8234C32.2728 14.959 32.2781 15.184 32.1425 15.3261C32.0069 15.4681 31.7819 15.4734 31.6398 15.3378C31.6195 15.3184 31.5991 15.2986 31.5783 15.2784C31.3862 15.092 31.1641 14.8764 30.7673 14.7476C30.3282 14.6051 29.6297 14.5593 28.489 14.9157C28.3016 14.9742 28.1022 14.8697 28.0436 14.6823C27.985 14.4949 28.0895 14.2954 28.277 14.2369C29.5108 13.8514 30.3668 13.87 30.9869 14.0713C31.5477 14.2533 31.8783 14.5768 32.0737 14.768Z" fill="black"/>
<path d="M31.8853 15.0806C31.8689 15.0649 31.8524 15.0489 31.8344 15.0315C31.8316 15.0288 31.8288 15.026 31.8259 15.0232C31.8258 15.0232 31.8258 15.0231 31.8257 15.0231L31.82 15.0176C31.7374 14.9374 31.6415 14.8443 31.5227 14.7519C31.6461 14.8474 31.7441 14.9429 31.825 15.0221L31.8853 15.0806Z" stroke="#888888" stroke-opacity="0.24" stroke-width="0.711111"/>
<path fill-rule="evenodd" clip-rule="evenodd" d="M23.5262 18.0769C23.7325 18.1413 23.8474 18.3606 23.783 18.5668C23.5011 19.4698 23.4959 20.5322 23.5836 21.5178C23.627 22.0069 23.6924 22.4687 23.7541 22.8736C23.7682 22.966 23.7822 23.0565 23.7958 23.1442C23.8407 23.433 23.8809 23.6917 23.9016 23.8905C23.9156 24.0245 23.8597 24.1562 23.7536 24.2392C22.8587 24.9388 22.4466 26.2429 22.2802 27.7192C22.1546 28.8341 22.1756 29.9659 22.1927 30.8919C22.1981 31.1819 22.2031 31.4518 22.2031 31.6946C22.2031 31.8885 22.061 32.0532 21.8691 32.0815C21.6772 32.1098 21.4936 31.9933 21.4376 31.8076C21.0817 30.6287 20.7239 30.1477 20.4915 29.9686C20.2966 29.8184 20.2058 29.8879 20.2058 29.8879C20.0261 30.0077 19.7832 29.9592 19.6634 29.7795C19.5436 29.5998 19.5921 29.357 19.7718 29.2372C20.0439 29.0557 20.5018 28.9889 20.969 29.349C21.1137 29.4605 21.2569 29.6111 21.3975 29.8085C21.398 29.1205 21.4199 28.3688 21.5029 27.6316C21.6643 26.1987 22.0669 24.6935 23.0986 23.7681C23.0794 23.6283 23.0542 23.4661 23.0255 23.2815C23.0113 23.1902 22.9963 23.0936 22.9807 22.9915C22.9182 22.5812 22.85 22.1005 22.8044 21.587C22.7138 20.5672 22.7087 19.3831 23.0364 18.3336C23.1007 18.1275 23.3201 18.0125 23.5262 18.0769Z" fill="black"/>
<path d="M23.4203 18.4163L23.4202 18.4163C23.4015 18.4105 23.3816 18.4209 23.3758 18.4396L23.3757 18.4396C23.0689 19.4225 23.0693 20.5513 23.1586 21.5556L23.1586 21.5556C23.2031 22.058 23.2701 22.53 23.3322 22.9379C23.347 23.0344 23.3612 23.126 23.3747 23.2131L23.3768 23.2268C23.4054 23.4106 23.4311 23.5761 23.4508 23.7197L23.4765 23.9067L23.336 24.0328C22.4072 24.8659 22.0157 26.2556 21.8562 27.6714C21.7753 28.39 21.7535 29.1271 21.7531 29.8088L21.7524 30.9201L21.1079 30.0148C20.9838 29.8404 20.864 29.717 20.752 29.6306C20.4088 29.3661 20.1178 29.4338 19.969 29.533L19.969 29.533C19.9528 29.5438 19.9483 29.5659 19.9592 29.5823C19.97 29.5985 19.9921 29.6031 20.0086 29.592L20.0103 29.5909C20.018 29.5858 20.0266 29.5805 20.0359 29.5752C20.0547 29.5647 20.0769 29.5542 20.1023 29.545C20.154 29.5263 20.2159 29.5144 20.2861 29.5165C20.4281 29.5207 20.5699 29.5801 20.7085 29.687L23.4203 18.4163ZM23.4203 18.4163C23.439 18.4222 23.4495 18.442 23.4436 18.4608L23.4203 18.4163ZM21.8372 30.8985L21.8372 30.8984L21.837 30.8894C21.82 29.9679 21.7987 28.8172 21.9269 27.6793C22.095 26.1876 22.5189 24.7532 23.5345 23.9591L21.8372 30.8985ZM21.8372 30.8985C21.8426 31.1893 21.8475 31.4557 21.8475 31.6946C21.8475 31.7122 21.8347 31.7272 21.8171 31.7298C21.7997 31.7323 21.783 31.7217 21.778 31.7049L21.7779 31.7049M21.8372 30.8985L21.7779 31.7049M21.7779 31.7049C21.4157 30.5049 21.0307 29.9353 20.7086 29.687L21.7779 31.7049ZM23.4026 22.9272L23.4026 22.9272L23.2294 21.5493C23.2738 22.0495 23.3405 22.5198 23.4026 22.9272ZM23.548 23.9273L23.548 23.9275L23.4445 23.1989C23.4899 23.4912 23.5284 23.7395 23.548 23.9273ZM23.4436 18.4609C23.1409 19.4304 23.1404 20.5482 23.2294 21.5492L23.4436 18.4609ZM19.7719 29.2374L19.7719 29.2373L19.7719 29.2374Z" stroke="#888888" stroke-opacity="0.24" stroke-width="0.711111"/>
<path fill-rule="evenodd" clip-rule="evenodd" d="M37.8581 28.6958C38.0361 28.6129 38.2476 28.6901 38.3305 28.8681C38.7762 29.8259 39.3851 31.5804 39.5785 32.5244C39.8884 32.9879 40.1958 33.6489 40.2921 34.282C40.3425 34.6144 40.3388 34.966 40.2218 35.284C40.1003 35.6138 39.8635 35.8869 39.4946 36.0496C38.7758 36.3669 38.0378 36.513 37.4054 36.5365C36.79 36.5593 36.217 36.4677 35.8642 36.2499C35.6971 36.1468 35.6452 35.9277 35.7483 35.7606C35.8514 35.5935 36.0705 35.5416 36.2377 35.6447C36.4115 35.752 36.8136 35.8468 37.3791 35.8259C37.9275 35.8055 38.5763 35.6777 39.2075 35.3991C39.3946 35.3166 39.4976 35.1927 39.5545 35.0382C39.6158 34.8718 39.6289 34.6516 39.589 34.3887C39.5088 33.8604 39.231 33.2686 38.952 32.8677C38.9234 32.8266 38.9039 32.78 38.8945 32.7309C38.7329 31.8799 38.1258 30.1138 37.6858 29.1681C37.6029 28.9901 37.6801 28.7786 37.8581 28.6958Z" fill="black"/>
<path d="M36.7468 36.1559C36.9408 36.1805 37.1585 36.1898 37.3922 36.1812L35.8642 36.2499C36.217 36.4677 36.79 36.5593 37.4054 36.5365L37.3923 36.1812C37.3922 36.1812 37.3922 36.1812 37.3922 36.1812C37.1525 36.1901 36.9358 36.1798 36.7468 36.1559ZM36.7468 36.1559C36.6955 36.1494 36.6461 36.1418 36.5989 36.1334C36.5739 36.1289 36.5492 36.1241 36.5247 36.119M36.7468 36.1559C36.6688 36.146 36.5946 36.1337 36.5247 36.119M36.5247 36.119C36.3525 36.083 36.2064 36.0331 36.094 35.9722M36.5247 36.119C36.361 36.0848 36.2123 36.0364 36.094 35.9722M36.094 35.9722C36.0791 35.9642 36.0648 35.9559 36.0509 35.9473L36.0509 35.9473L36.0509 35.9473C36.0647 35.9558 36.079 35.9641 36.094 35.9722ZM39.6841 35.4943C39.7757 35.3975 39.8425 35.285 39.8881 35.1611L39.6841 35.4943ZM39.6841 35.4943C39.7757 35.3975 39.8425 35.2851 39.8881 35.1611C39.9773 34.9189 39.9857 34.633 39.9405 34.3353L39.6841 35.4943ZM39.2437 32.6642C39.2405 32.6469 39.237 32.6292 39.2334 32.6112L39.2442 32.664L39.2713 32.7046C39.2622 32.6911 39.253 32.6778 39.2439 32.6647L39.2439 32.6646L39.2437 32.6642ZM39.351 35.7244C38.676 36.0222 37.9827 36.1592 37.3923 36.1812C37.3923 36.1812 37.3922 36.1812 37.3922 36.1812L37.3791 35.8259C37.9275 35.8055 38.5763 35.6777 39.2075 35.3991L39.351 35.7244ZM36.0509 35.9473L36.051 35.9473L36.2371 35.6457L36.0509 35.9473Z" stroke="#888888" stroke-opacity="0.24" stroke-width="0.711111"/>
<path fill-rule="evenodd" clip-rule="evenodd" d="M19.0307 31.9245C19.2035 31.8314 19.4192 31.8959 19.5124 32.0688L20.6372 34.1561C20.7304 34.3289 20.6657 34.5446 20.4929 34.6378C20.32 34.7309 20.1044 34.6663 20.0112 34.4935L18.8864 32.4062C18.7932 32.2334 18.8578 32.0177 19.0307 31.9245Z" fill="black"/>
<path d="M20.3242 34.3248L19.3924 32.5957L20.3242 34.3247L20.3242 34.3248Z" stroke="#888888" stroke-opacity="0.24" stroke-width="0.711111"/>
<mask id="path-34-inside-3_3553_187" fill="white">
<path fill-rule="evenodd" clip-rule="evenodd" d="M20.6667 32.6406C20.7765 32.8033 20.7337 33.0243 20.571 33.1342L19.1756 34.0763C19.0129 34.1862 18.7919 34.1434 18.682 33.9806C18.5721 33.8179 18.615 33.5968 18.7778 33.487L20.173 32.5449C20.3358 32.435 20.5568 32.4778 20.6667 32.6406Z"/>
</mask>
<path fill-rule="evenodd" clip-rule="evenodd" d="M20.6667 32.6406C20.7765 32.8033 20.7337 33.0243 20.571 33.1342L19.1756 34.0763C19.0129 34.1862 18.7919 34.1434 18.682 33.9806C18.5721 33.8179 18.615 33.5968 18.7778 33.487L20.173 32.5449C20.3358 32.435 20.5568 32.4778 20.6667 32.6406Z" fill="black"/>
<path d="M20.6667 32.6406L20.0773 33.0384L20.0773 33.0386L20.6667 32.6406ZM20.571 33.1342L20.1731 32.5448L20.173 32.5448L20.571 33.1342ZM19.1756 34.0763L18.7777 33.487L18.7777 33.487L19.1756 34.0763ZM18.682 33.9806L19.2715 33.5828L19.2713 33.5826L18.682 33.9806ZM18.7778 33.487L19.1756 34.0764L19.1757 34.0763L18.7778 33.487ZM20.173 32.5449L20.571 33.1342L20.571 33.1342L20.173 32.5449ZM20.0773 33.0386C19.9675 32.8758 20.0102 32.6547 20.1731 32.5448L20.9688 33.7236C21.4572 33.3939 21.5856 32.7308 21.256 32.2427L20.0773 33.0386ZM20.173 32.5448L18.7777 33.487L19.5736 34.6657L20.9689 33.7235L20.173 32.5448ZM18.7777 33.487C18.9404 33.3771 19.1615 33.4199 19.2715 33.5828L18.0926 34.3785C18.4223 34.8669 19.0855 34.9953 19.5736 34.6657L18.7777 33.487ZM19.2713 33.5826C19.3813 33.7454 19.3384 33.9665 19.1756 34.0764L18.3799 32.8976C17.8916 33.2272 17.7629 33.8903 18.0927 34.3786L19.2713 33.5826ZM19.1757 34.0763L20.571 33.1342L19.7751 31.9555L18.3798 32.8976L19.1757 34.0763ZM20.571 33.1342C20.4082 33.2441 20.1871 33.2012 20.0773 33.0384L21.2561 32.2428C20.9265 31.7544 20.2634 31.6258 19.775 31.9556L20.571 33.1342Z" fill="#888888" fill-opacity="0.24" mask="url(#path-34-inside-3_3553_187)"/>
<path d="M31.2758 29.4401C31.3368 30.1387 31.8326 30.666 32.3831 30.6178C32.9336 30.5697 33.3303 29.9643 33.2691 29.2656C33.2081 28.567 32.7123 28.0397 32.1618 28.0879C31.6113 28.136 31.2146 28.7414 31.2758 29.4401Z" fill="black"/>
<path d="M31.63 29.4091L31.63 29.4091C31.5786 28.8227 31.9119 28.4667 32.1928 28.4421C32.4736 28.4175 32.8637 28.7103 32.9149 29.2966L32.9149 29.2966C32.9663 29.883 32.6329 30.239 32.3521 30.2636C32.0713 30.2882 31.6812 29.9954 31.63 29.4091Z" stroke="#888888" stroke-opacity="0.24" stroke-width="0.711111"/>
<path d="M40.9476 29.7886C41.0087 30.4872 41.5045 31.0146 42.055 30.9664C42.6054 30.9182 43.0022 30.3129 42.941 29.6143C42.8799 28.9156 42.3841 28.3883 41.8337 28.4365C41.2832 28.4847 40.8865 29.09 40.9476 29.7886Z" fill="black"/>
<path d="M41.3018 29.7576L41.3018 29.7577C41.3531 30.344 41.7432 30.6368 42.0239 30.6122L42.024 30.6122C42.3048 30.5876 42.6381 30.2315 42.5868 29.6453L42.5868 29.6452C42.5355 29.0589 42.1455 28.7661 41.8647 28.7907L41.3018 29.7576ZM41.3018 29.7576C41.2505 29.1714 41.5838 28.8153 41.8646 28.7907L41.3018 29.7576Z" stroke="#888888" stroke-opacity="0.24" stroke-width="0.711111"/>
<path fill-rule="evenodd" clip-rule="evenodd" d="M33.7356 25.8159C34.509 26.0086 35.1629 26.3158 35.542 26.5313C35.7128 26.6284 35.7724 26.8455 35.6754 27.0161C35.5783 27.1869 35.3613 27.2465 35.1905 27.1495C34.8562 26.9594 34.2624 26.6801 33.5636 26.5058C32.8628 26.3312 32.0832 26.2688 31.3592 26.4808C30.6042 26.702 29.728 27.0814 29.2402 27.2926C29.1207 27.3444 29.0245 27.386 28.9591 27.4128C28.7773 27.4871 28.5697 27.4001 28.4953 27.2184C28.421 27.0366 28.508 26.829 28.6898 26.7546C28.7416 26.7334 28.824 26.6977 28.9301 26.6516C29.4046 26.4459 30.3526 26.0347 31.1593 25.7984C32.0468 25.5384 32.964 25.6236 33.7356 25.8159Z" fill="black"/>
<path d="M28.8244 27.0837L28.8244 27.0837L28.4953 27.2184M28.8244 27.0837L28.6898 26.7546L28.8243 27.0837L28.4953 27.2184M28.8244 27.0837C28.8807 27.0607 28.9672 27.0232 29.0716 26.9778L28.8244 27.0837ZM28.4953 27.2184C28.421 27.0366 28.508 26.829 28.6898 26.7546C28.7416 26.7334 28.824 26.6977 28.9301 26.6516L28.9591 27.4128C28.7773 27.4871 28.5697 27.4001 28.4953 27.2184ZM29.0716 26.9778C29.2515 26.8998 29.4948 26.7944 29.77 26.6809L29.0716 26.9778ZM33.6496 26.1609L33.7356 25.8159L33.6496 26.1609Z" stroke="#888888" stroke-opacity="0.24" stroke-width="0.711111"/>
<path fill-rule="evenodd" clip-rule="evenodd" d="M43.0904 27.2075C42.351 27.1514 41.571 27.2843 41.1138 27.4503C40.9292 27.5174 40.7252 27.4221 40.6581 27.2375C40.5912 27.0529 40.6865 26.8489 40.871 26.7819C41.4239 26.5811 42.305 26.4347 43.1443 26.4984C43.9657 26.5608 44.8756 26.8371 45.3061 27.6155C45.4011 27.7874 45.3388 28.0037 45.167 28.0987C44.9951 28.1938 44.7788 28.1315 44.6838 27.9597C44.434 27.5079 43.8476 27.265 43.0904 27.2075Z" fill="black"/>
<path d="M42.4727 26.8452C42.0282 26.8661 41.6025 26.9375 41.2621 27.031C41.6025 26.9375 42.0282 26.8661 42.4727 26.8452Z" stroke="#888888" stroke-opacity="0.24" stroke-width="0.711111"/>
<g opacity="0.65">
<path fill-rule="evenodd" clip-rule="evenodd" d="M35.7274 40.0969C35.3039 40.0802 34.8513 40.1253 34.4644 40.2855C34.1215 40.4276 33.7764 40.5359 33.4518 40.6129L35.1193 41.3478C35.2785 41.418 35.4523 41.4482 35.6258 41.4357L37.3027 41.3156C37.5624 41.297 37.8063 41.184 37.9885 40.9981L38.8828 40.0851C38.7222 40.08 38.5368 40.0673 38.3082 40.0498C37.7121 40.004 37.1431 40.1637 36.9527 40.2414C36.8765 40.2725 36.7918 40.2761 36.7133 40.2517C36.5159 40.1906 36.1496 40.1136 35.7274 40.0969ZM36.8046 39.5384C36.5446 39.4695 36.1708 39.4028 35.7555 39.3864C35.273 39.3673 34.7076 39.415 34.1923 39.6285C33.7664 39.8049 33.3366 39.923 32.9622 39.9881C32.5812 40.0544 32.282 40.0616 32.1103 40.0345C31.9339 40.0066 31.7641 40.114 31.7137 40.2854C31.6633 40.4568 31.7479 40.639 31.9114 40.711L34.8325 41.9986C35.0977 42.1155 35.3875 42.1657 35.6765 42.145L37.3535 42.0249C37.7863 41.9939 38.1928 41.8056 38.4964 41.4957L40.114 39.8445C40.2269 39.7293 40.2481 39.5526 40.1657 39.414C40.0833 39.2754 39.918 39.2096 39.7629 39.2536C39.4998 39.3283 39.355 39.3607 39.1833 39.3718C39.0022 39.3837 38.7804 39.3728 38.3627 39.3407C37.7249 39.2917 37.1249 39.4298 36.8046 39.5384Z" fill="black"/>
<path d="M36.7254 39.8852L36.8172 39.9096L36.9106 39.8779C36.8752 39.89 36.8443 39.9016 36.8185 39.9121M36.7254 39.8852L34.3284 39.957C34.0034 40.0916 33.6764 40.1942 33.3697 40.267C33.3646 40.2682 33.3594 40.2694 33.3543 40.2706M36.7254 39.8852C36.7589 39.8943 36.79 39.9033 36.8185 39.9121L36.8187 39.9121L36.8185 39.9121M36.7254 39.8852L38.2425 41.2469C38.2425 41.2469 38.2425 41.2469 38.2425 41.2469C37.9995 41.4948 37.6743 41.6454 37.3281 41.6702L37.3281 41.6702L37.3281 41.6702L36.5567 41.7255M36.8185 39.9121C36.8185 39.9121 36.8185 39.9122 36.8185 39.9122C36.8185 39.9122 36.8184 39.9122 36.8184 39.9122L36.8184 39.9122L36.8186 39.9125L36.9527 40.2414M36.8185 39.9121L36.8186 39.9124L36.9527 40.2414M36.9527 40.2414C36.8765 40.2725 36.7918 40.2761 36.7133 40.2517C36.5159 40.1906 36.1496 40.1136 35.7274 40.0969C35.3039 40.0802 34.8513 40.1253 34.4644 40.2855C34.3058 40.3512 34.1467 40.4097 33.9893 40.4612L33.5952 40.2875L33.4518 40.6129L33.5339 40.9588C33.6757 40.9252 33.8212 40.8859 33.9687 40.8407L35.1193 41.3478M36.9527 40.2414C37.1431 40.1637 37.7121 40.004 38.3082 40.0498C38.3438 40.0525 38.3784 40.0551 38.412 40.0576L38.6288 39.8363L38.8828 40.0851L38.8715 40.4405C38.7733 40.4373 38.6673 40.4316 38.551 40.4239L37.9885 40.9981C37.8063 41.184 37.5624 41.297 37.3027 41.3156L35.6258 41.4357M35.1193 41.3478L34.9758 41.6731L34.1387 41.3042M35.1193 41.3478C35.2785 41.418 35.4523 41.4482 35.6258 41.4357M35.1193 41.3478L34.9759 41.6732C35.1881 41.7667 35.4199 41.8069 35.6512 41.7904L35.6258 41.4357M34.1387 41.3042L33.3084 40.9382L32.3399 40.5113M34.1387 41.3042L33.3084 40.9382L32.3398 40.5113L32.3399 40.5113M34.1387 41.3042L34.9759 41.6732L34.9759 41.6732C35.188 41.7667 35.4199 41.8069 35.6511 41.7904M32.3399 40.5113L33.3543 40.2706M32.3399 40.5113L32.0549 40.3857M33.3543 40.2706C33.2407 40.2973 33.1299 40.3198 33.0232 40.3384L33.0232 40.3384C32.6243 40.4078 32.2814 40.4215 32.0549 40.3857M33.3543 40.2706L33.3697 40.2669C33.6769 40.194 34.0039 40.0914 34.3284 39.957L34.3284 39.957M32.0549 40.3857L34.3284 39.957M32.0549 40.3857L32.0549 40.3856L32.0548 40.3857M32.0549 40.3857L34.1923 39.6285C33.7664 39.8049 33.3366 39.923 32.9622 39.9881C32.5812 40.0544 32.282 40.0616 32.1103 40.0345M32.0549 40.3857L32.0549 40.3857M32.0549 40.3857C32.0548 40.3857 32.0548 40.3857 32.0548 40.3857M34.3284 39.957L34.3284 39.957C34.6667 39.8169 35.0376 39.7557 35.393 39.7415C35.0376 39.7557 34.6667 39.8168 34.3284 39.957ZM32.0548 40.3857L32.0548 40.3856L32.1103 40.0345M32.0548 40.3857C32.0548 40.3857 32.0548 40.3857 32.0548 40.3857L32.0548 40.3857L32.0548 40.3857ZM32.0548 40.3857L32.0549 40.3857M32.1103 40.0345L32.0548 40.3856L32.0547 40.3856C32.0548 40.3857 32.0548 40.3857 32.0548 40.3857C32.0548 40.3857 32.0548 40.3857 32.0548 40.3857M32.1103 40.0345C31.9339 40.0066 31.7641 40.114 31.7137 40.2854C31.6633 40.4568 31.7479 40.639 31.9114 40.711L34.8325 41.9986M34.8325 41.9986C35.0977 42.1155 35.3875 42.1657 35.6765 42.145M34.8325 41.9986L38.4964 41.4957C38.1928 41.8056 37.7863 41.9939 37.3535 42.0249L35.6765 42.145M34.8325 41.9986L32.0548 40.3857M35.6765 42.145L35.6511 41.7904M35.6765 42.145L35.6511 41.7904L36.5567 41.7255M35.6511 41.7904L39.8599 39.5956L39.86 39.5957L38.5993 40.8826M35.6511 41.7904L32.0548 40.3857M36.5567 41.7255L37.3281 41.6702L37.3281 41.6702L37.3281 41.6702C37.6744 41.6454 37.9996 41.4949 38.2425 41.2469L38.4954 41.4947L38.2425 41.2469L38.2425 41.2469L38.5993 40.8826M36.5567 41.7255L35.6512 41.7904L35.6258 41.4357M38.5993 40.8826L39.1368 40.3339L39.7033 39.7555L38.908 39.7302C39.0208 39.7335 39.1169 39.7325 39.2064 39.7267L38.5993 40.8826ZM32.0548 40.3857L32.0548 40.3857L32.0548 40.3858L32.0549 40.3857M37.2643 39.7799C37.559 39.7143 37.9411 39.6649 38.3354 39.6952L37.2643 39.7799ZM37.2643 39.7799C37.557 39.7148 37.9394 39.6648 38.3354 39.6952L38.3355 39.6952M37.2643 39.7799L38.3355 39.6952M38.3355 39.6952L38.3355 39.6952C38.5066 39.7084 38.6498 39.7185 38.7748 39.7248C38.651 39.7185 38.5077 39.7085 38.3355 39.6952ZM39.2066 39.7266C39.4169 39.7129 39.591 39.672 39.86 39.5956L39.2066 39.7266Z" stroke="#888888" stroke-opacity="0.24" stroke-width="0.711111"/>
</g>
<mask id="path-46-inside-4_3553_187" fill="white">
<path fill-rule="evenodd" clip-rule="evenodd" d="M39.9415 47.2701C40.1378 47.2701 40.297 47.4294 40.297 47.6257V54.7776C40.297 54.9739 40.1378 55.1331 39.9415 55.1331C39.7452 55.1331 39.5859 54.9739 39.5859 54.7776V47.6257C39.5859 47.4294 39.7452 47.2701 39.9415 47.2701Z"/>
</mask>
<path fill-rule="evenodd" clip-rule="evenodd" d="M39.9415 47.2701C40.1378 47.2701 40.297 47.4294 40.297 47.6257V54.7776C40.297 54.9739 40.1378 55.1331 39.9415 55.1331C39.7452 55.1331 39.5859 54.9739 39.5859 54.7776V47.6257C39.5859 47.4294 39.7452 47.2701 39.9415 47.2701Z" fill="black"/>
<path d="M39.9415 47.9813C39.7451 47.9813 39.5859 47.8221 39.5859 47.6257H41.0082C41.0082 47.0366 40.5306 46.559 39.9415 46.559V47.9813ZM39.5859 47.6257V54.7776H41.0082V47.6257H39.5859ZM39.5859 54.7776C39.5859 54.5812 39.7451 54.422 39.9415 54.422V55.8442C40.5306 55.8442 41.0082 55.3666 41.0082 54.7776H39.5859ZM39.9415 54.422C40.1379 54.422 40.297 54.5812 40.297 54.7776H38.8748C38.8748 55.3666 39.3524 55.8442 39.9415 55.8442V54.422ZM40.297 54.7776V47.6257H38.8748V54.7776H40.297ZM40.297 47.6257C40.297 47.8221 40.1379 47.9813 39.9415 47.9813V46.559C39.3524 46.559 38.8748 47.0366 38.8748 47.6257H40.297Z" fill="#888888" fill-opacity="0.24" mask="url(#path-46-inside-4_3553_187)"/>
<path fill-rule="evenodd" clip-rule="evenodd" d="M21.4592 50.7369C21.5047 50.8911 21.4411 51.0565 21.3041 51.1406C20.2496 51.7872 19.2699 52.866 19.2589 54.0493C19.2482 55.1939 20.1527 56.673 23.4325 58.1231C27.4907 59.9173 33.0443 60.1254 36.8444 59.0309C38.7539 58.481 40.1351 57.6271 40.7136 56.5689C41.2648 55.5606 41.1473 54.2393 39.7417 52.5628C39.653 52.4569 39.6336 52.3092 39.692 52.184C39.7504 52.0588 39.8761 51.9789 40.0142 51.9789C41.0264 51.9789 42.0024 52.5061 42.7684 53.0417C43.1573 53.3137 43.5059 53.5979 43.7919 53.8371C43.857 53.8916 43.9177 53.9427 43.9744 53.9904C44.1537 54.1413 44.2919 54.2576 44.3952 54.3336L54.8745 58.0086C57.3252 58.8682 59.2775 60.7565 60.2181 63.1771L61.6397 66.8356C61.6785 66.9354 61.6703 67.0474 61.6172 67.1404C61.5643 67.2335 61.4721 67.2976 61.3664 67.3152L4.9705 76.6613C4.81917 76.6869 4.66882 76.6115 4.59754 76.4757L-2.43193 63.083C-2.47615 62.9987 -2.48475 62.9002 -2.45582 62.8096C-2.42689 62.719 -2.36284 62.6437 -2.278 62.6006L15.2447 53.7087C16.0485 53.0331 17.2026 52.2476 18.2912 51.6248C18.8434 51.3088 19.3855 51.0308 19.8622 50.8291C20.3261 50.6327 20.7699 50.4901 21.1098 50.482C21.2704 50.4782 21.4137 50.5827 21.4592 50.7369ZM18.6443 52.242C17.5694 52.8571 16.4367 53.6311 15.6721 54.2784C15.651 54.2963 15.6279 54.3117 15.6032 54.3242L-1.63475 63.0717L5.10776 75.9182L60.8184 66.6852L59.5553 63.4347C58.6899 61.2077 56.8938 59.4704 54.6392 58.6797L44.1121 54.9878C44.0819 54.9773 44.0533 54.9627 44.027 54.9445C43.8904 54.8497 43.7043 54.6929 43.4973 54.5184C43.4446 54.4741 43.3906 54.4286 43.3357 54.3826C43.0542 54.1472 42.7243 53.8786 42.3609 53.6245C41.8758 53.2853 41.354 52.9886 40.8307 52.8248C41.8555 54.3446 41.982 55.7312 41.3376 56.9099C40.6203 58.2221 39.0075 59.148 37.0412 59.7143C33.0898 60.8524 27.3641 60.6388 23.145 58.7735C19.8029 57.2959 18.5329 55.6377 18.5478 54.0427C18.5557 53.1957 18.9284 52.4357 19.4477 51.8076C19.1901 51.938 18.92 52.0843 18.6443 52.242Z" fill="black"/>
<path d="M21.1182 50.8375L21.1181 50.8375M21.1182 50.8375L21.1182 50.8375L21.304 51.1405L21.1182 50.8376L21.1182 50.8375L21.1181 50.8376L21.1181 50.8375M21.1182 50.8375C20.8506 50.8438 20.4601 50.9621 20.0008 51.1565L20.0008 51.1565C19.7709 51.2538 19.5238 51.3701 19.2661 51.5011C19.2731 51.4975 19.2801 51.4939 19.2872 51.4904L19.7216 52.0341M21.1182 50.8375C21.1182 50.8375 21.1182 50.8375 21.1181 50.8375M21.1181 50.8375L19.7216 52.0341M21.1181 50.8375C20.622 51.1418 20.1212 51.5502 19.7216 52.0341M21.1181 50.8375L19.7216 52.0341M-2.11709 62.9177L-2.1171 62.9177L-1.79565 62.7546L-2.11711 62.9177M-2.11709 62.9177L-2.11711 62.9177M-2.11709 62.9177L-2.11711 62.9177M-2.11709 62.9177L-2.278 62.6006L-2.11711 62.9177M18.9033 54.046C18.9097 53.3664 19.1845 52.7352 19.6039 52.1828C19.1897 52.7293 18.9097 53.3629 18.9034 54.046C18.8993 54.4793 19.0053 54.9325 19.257 55.3961C19.0053 54.9325 18.8993 54.4793 18.9033 54.046ZM43.7454 54.2624L43.7455 54.2625L43.7543 54.2699C43.8167 54.3224 43.8756 54.3721 43.9309 54.418C43.868 54.3658 43.7997 54.3083 43.7265 54.2466L43.7264 54.2465C43.6836 54.2105 43.6397 54.1735 43.5951 54.1361C43.648 54.1804 43.698 54.2225 43.7454 54.2624ZM18.4677 51.9334L18.4677 51.9334C18.3334 52.0103 18.1981 52.0896 18.0627 52.1709C18.1982 52.0896 18.3334 52.0102 18.4677 51.9334L18.3012 51.6423L18.4677 51.9334C18.662 51.8223 18.8542 51.7163 19.042 51.6172C18.8544 51.7162 18.6622 51.8222 18.4677 51.9334ZM40.0142 52.3344C40.0334 52.3344 40.0525 52.3346 40.0717 52.335L40.484 52.9465C40.3448 52.7461 40.1884 52.5421 40.0142 52.3344ZM32.0106 60.0532C33.7879 60.0232 35.4894 59.7912 36.9428 59.3726C37.2158 59.294 37.4801 59.2088 37.7344 59.1171C37.4801 59.2088 37.2158 59.294 36.9428 59.3727C35.4894 59.7913 33.7879 60.0232 32.0106 60.0532ZM41.0842 56.6267C41.3556 56.076 41.4532 55.4462 41.3098 54.7452C41.303 54.7117 41.2956 54.6782 41.2877 54.6445C41.4603 55.3719 41.3772 56.0333 41.0842 56.6267ZM41.3442 52.6365C41.7755 52.8204 42.1885 53.0701 42.5646 53.3331C42.5648 53.3332 42.565 53.3333 42.5652 53.3335C42.565 53.3333 42.5648 53.3332 42.5647 53.3331C42.1842 53.0671 41.7716 52.8188 41.3442 52.6365Z" stroke="#888888" stroke-opacity="0.24" stroke-width="0.711111"/>
</g>
</svg>
