<svg width="64" height="64" viewBox="0 0 64 64" fill="none" xmlns="http://www.w3.org/2000/svg">
<mask id="mask0_3094_1184" style="mask-type:alpha" maskUnits="userSpaceOnUse" x="0" y="0" width="64" height="64">
<circle cx="32" cy="32" r="32" fill="#D9D9D9"/>
</mask>
<g mask="url(#mask0_3094_1184)">
<circle cx="32" cy="32" r="31.75" fill="white" stroke="#E2E2E2" stroke-width="0.5"/>
<path opacity="0.5" d="M34.9396 54.3991L39.8562 48.2735L37.2146 50.2731H33.8258L28.5296 48.0223C27.0883 47.4097 25.8895 46.3386 25.1193 44.975L22.0083 39.4673L25.4048 49.4515C25.5088 49.7574 25.714 50.0187 25.9864 50.1925L33.0657 54.7079C33.6776 55.0983 34.4852 54.9652 34.9396 54.3991Z" fill="#E6E6E6"/>
<path opacity="0.5" d="M37.066 37.9558L35.7135 37.4401C33.9745 37.7407 31.5502 38.5095 30.7258 39.1794C30.1956 39.6102 29.7205 40.9179 29.449 41.7965C29.3155 42.2283 28.8311 42.4299 28.5404 42.084C27.4806 40.8229 26.759 38.1002 25.6682 36.3742C22.3797 33.7833 21.5195 29.8743 21.5195 29.8743C21.3478 31.0122 21.1313 36.1136 21.8011 38.793C22.6385 42.1422 24.6994 45.105 26.2452 46.6508C27.791 48.1966 32.14 50.0779 34.5876 50.2067C37.0351 50.3356 37.9368 49.3694 40.1267 47.4372C41.8786 45.8913 43.4827 40.6246 44.1053 38.6494C43.7327 39.2929 42.4186 40.7219 41.3727 41.7844C41.1015 42.0599 40.6939 41.7662 40.8401 41.4083C41.1152 40.7351 41.3804 39.9806 41.4485 39.4352C41.6031 38.1986 39.494 37.7622 38.4634 37.4401L37.6261 37.9558H37.066Z" fill="#E6E6E6"/>
<path d="M38.7492 15.7356C41.3973 15.9837 42.8941 17.8878 43.2732 18.819C44.1271 16.0477 42.4882 13.9255 41.4718 13.3658C41.4088 11.3263 39.1703 9.48741 38.1299 9.01452L38.1103 9.00563C37.0822 8.53815 36.4901 8.26899 31.2479 8.37175C27.0278 8.45452 24.1994 11.8591 22.6823 13.721L18.8868 15.4925L16.9734 17.7846L17.5941 18.819L16.2495 20.6809H17.5941V22.9565L19.1457 28.6455L20.9776 29.8666L21.4216 31.4383C21.0905 27.2181 22.7666 24.577 23.663 23.922C23.525 23.5772 23.1134 22.032 23.1134 20.8271C23.1134 19.0713 23.938 17.7833 25.2827 16.7489C26.6274 15.7146 28.8663 14.8927 31.478 15.7356C34.3053 16.6481 37.37 16.0114 38.7492 15.7356Z" fill="#E6E6E6"/>
<path fill-rule="evenodd" clip-rule="evenodd" d="M21.0622 35.6526C21.2479 35.5889 21.4501 35.6879 21.5138 35.8737C21.8279 36.7902 22.2679 39.3491 22.4472 42.4254C22.6738 46.3141 21.7357 50.9309 20.7826 53.1801C20.706 53.3609 20.4973 53.4454 20.3166 53.3687C20.1357 53.2921 20.0512 53.0835 20.1279 52.9027C21.0369 50.7572 21.9578 46.2499 21.7373 42.4667C21.5589 39.4054 21.1226 36.9258 20.8411 36.1042C20.7774 35.9185 20.8764 35.7162 21.0622 35.6526Z" fill="black"/>
<path fill-rule="evenodd" clip-rule="evenodd" d="M19.4617 28.6566C19.9543 29.0438 20.32 29.6703 20.5102 30.1141C20.5876 30.2946 20.504 30.5036 20.3235 30.581C20.143 30.6584 19.934 30.5747 19.8566 30.3943C19.6882 30.0012 19.3813 29.498 19.0222 29.2157C18.8468 29.0778 18.6841 29.0123 18.5369 29.0092C18.3983 29.0062 18.2211 29.0574 18.0053 29.2588C17.7596 29.4882 17.5804 29.9178 17.5028 30.5359C17.4267 31.1427 17.4558 31.8754 17.5717 32.6417C17.8049 34.1839 18.3753 35.7767 19.041 36.6657C19.56 37.359 19.9658 37.4081 20.2199 37.3441C20.5277 37.2665 20.8061 36.9798 20.9648 36.7023C21.0623 36.5319 21.2795 36.4727 21.4499 36.5702C21.6204 36.6677 21.6796 36.8849 21.5821 37.0553C21.3774 37.4131 20.9681 37.8888 20.3937 38.0336C19.7654 38.1919 19.0943 37.9234 18.4717 37.0919C17.7103 36.075 17.1116 34.3554 16.8686 32.748C16.7464 31.9395 16.7106 31.1381 16.7972 30.4474C16.8824 29.7682 17.0935 29.1373 17.5201 28.739C17.8422 28.4383 18.1916 28.2906 18.5517 28.2982C18.9032 28.3056 19.2112 28.4598 19.4617 28.6566Z" fill="black"/>
<path fill-rule="evenodd" clip-rule="evenodd" d="M29.7064 8.52701C31.2013 8.10247 33.1155 7.55876 36.251 8.05604C38.4204 8.40007 39.8505 9.43986 40.7422 10.7177C41.627 11.9855 41.9681 13.4667 42.0099 14.6922C42.0166 14.8885 41.8629 15.053 41.6667 15.0597C41.4704 15.0664 41.3059 14.9127 41.2992 14.7164C41.2608 13.5917 40.9467 12.2532 40.1591 11.1246C39.3783 10.0059 38.1189 9.07221 36.1396 8.75833C33.1624 8.28615 31.3789 8.79204 29.9001 9.21145C29.7093 9.26549 29.5237 9.31819 29.3411 9.36711C28.2145 9.7061 26.4996 10.5215 25.0334 11.804C23.5668 13.087 22.3787 14.8097 22.2318 16.9645C22.2184 17.1604 22.0488 17.3084 21.8528 17.295C21.6569 17.2817 21.509 17.112 21.5223 16.9161C21.6862 14.5119 23.0113 12.6281 24.5652 11.2688C26.1174 9.91104 27.9276 9.04889 29.1417 8.68452L29.152 8.6816C29.331 8.63367 29.5153 8.58133 29.7064 8.52701ZM41.7985 16.4114C41.9402 16.2755 42.1653 16.2802 42.3012 16.4219C43.8745 18.0626 44.7011 20.4098 45.1036 22.6532C45.5071 24.9026 45.4927 27.0952 45.3464 28.4754C45.3438 28.4998 45.3387 28.5238 45.3312 28.5471C45.0236 29.5007 45.0562 30.6321 45.1593 31.7662C45.1839 32.0365 45.2121 32.3038 45.2399 32.5674L45.2432 32.5991C45.2719 32.872 45.3002 33.1413 45.3226 33.4005C45.3672 33.9155 45.3909 34.4112 45.3465 34.8432C45.186 36.4036 44.6039 38.6237 44.0709 40.2892C43.7992 41.1383 42.9098 43.4698 41.591 45.679C40.9315 46.7839 40.157 47.8709 39.2892 48.7279C38.4242 49.5822 37.4403 50.2337 36.3609 50.4166C33.1149 50.9665 29.9439 49.6437 28.7508 48.9097C28.5836 48.8069 28.5315 48.5879 28.6344 48.4206C28.7372 48.2534 28.9562 48.2012 29.1235 48.3041C30.2304 48.985 33.2252 50.2266 36.2421 49.7155C37.12 49.5667 37.9772 49.0241 38.7895 48.2219C39.599 47.4225 40.338 46.3906 40.9805 45.3145C42.2657 43.1615 43.1346 40.8819 43.3936 40.0725C43.9222 38.4206 44.4863 36.2564 44.6391 34.7704C44.6763 34.4087 44.658 33.9686 44.6142 33.4618C44.5924 33.2102 44.5649 32.9474 44.536 32.6736L44.5325 32.6404C44.5049 32.3779 44.4762 32.1061 44.4511 31.8305C44.3487 30.7036 44.2996 29.4593 44.643 28.3649C44.7794 27.0418 44.7906 24.9358 44.4037 22.7788C44.0121 20.5963 43.2215 18.409 41.788 16.9141C41.652 16.7724 41.6568 16.5473 41.7985 16.4114Z" fill="black"/>
<path fill-rule="evenodd" clip-rule="evenodd" d="M23.0821 13.7671C23.1154 13.9805 22.9693 14.1804 22.7559 14.2137C22.4333 14.2639 21.9764 14.4345 21.4342 14.7038C20.8998 14.9691 20.31 15.3164 19.7295 15.6967C18.6952 16.3742 17.722 17.1353 17.1571 17.6968L17.8355 18.8057C17.9202 18.9441 17.9106 19.1205 17.8114 19.2489L17.0553 20.2276H17.5018C17.6056 20.2275 17.7051 20.2688 17.7785 20.3421C17.8518 20.4155 17.893 20.515 17.893 20.6187V23.1894L19.539 28.711C19.6008 28.918 19.483 29.1358 19.276 29.1976C19.069 29.2593 18.8511 29.1415 18.7895 28.9345L17.1271 23.3581C17.1163 23.3219 17.1108 23.2842 17.1108 23.2464V21.0098H16.2588C16.1096 21.0099 15.9735 20.9251 15.9077 20.7912C15.842 20.6572 15.8581 20.4977 15.9493 20.3796L17.0276 18.9839L16.333 17.8484C16.2428 17.701 16.26 17.5119 16.3754 17.3832C16.9543 16.738 18.1114 15.8215 19.3009 15.0423C19.8997 14.6501 20.517 14.2859 21.0863 14.0032C21.648 13.7242 22.1917 13.5099 22.6355 13.4408C22.8489 13.4075 23.0489 13.5536 23.0821 13.7671Z" fill="black"/>
<path fill-rule="evenodd" clip-rule="evenodd" d="M41.3005 12.9413C41.4066 12.7761 41.6265 12.7281 41.7918 12.8341C44.6643 14.6773 44.28 17.8199 44.085 19.1837C44.0573 19.378 43.8772 19.5131 43.6828 19.4853C43.4884 19.4575 43.3533 19.2774 43.3811 19.0831C43.5796 17.6944 43.8685 15.0116 41.4077 13.4326C41.2425 13.3266 41.1945 13.1066 41.3005 12.9413Z" fill="black"/>
<path fill-rule="evenodd" clip-rule="evenodd" d="M34.2976 9.73368C34.3217 9.53876 34.4991 9.40024 34.694 9.4242C36.6164 9.66086 38.0454 10.7252 38.9762 11.9575C39.8988 13.1791 40.3603 14.6034 40.3106 15.6174C40.3009 15.8135 40.1341 15.9648 39.938 15.9552C39.7419 15.9455 39.5906 15.7788 39.6003 15.5826C39.6399 14.7735 39.2569 13.5091 38.4088 12.3862C37.5688 11.2741 36.3006 10.3385 34.6071 10.13C34.4122 10.106 34.2737 9.92859 34.2976 9.73368Z" fill="black"/>
<path fill-rule="evenodd" clip-rule="evenodd" d="M34.9474 11.3538C36.5625 12.3317 37.5406 13.7619 38.0508 14.7731C38.1393 14.9484 38.0689 15.1623 37.8936 15.2507C37.7182 15.3392 37.5044 15.2688 37.4159 15.0935C36.9431 14.1563 36.0435 12.8488 34.5791 11.9621C33.1267 11.0827 31.0862 10.597 28.2788 11.3456C28.0891 11.3963 27.8942 11.2835 27.8436 11.0938C27.793 10.904 27.9059 10.7092 28.0956 10.6586C31.0793 9.86291 33.3203 10.3687 34.9474 11.3538Z" fill="black"/>
<path fill-rule="evenodd" clip-rule="evenodd" d="M28.7287 12.2275C31.5663 11.6869 33.8765 13.0181 34.72 14.1954C34.8343 14.355 34.7976 14.5771 34.638 14.6915C34.4783 14.8059 34.2563 14.7692 34.1419 14.6095C33.4612 13.6595 31.4295 12.4368 28.8618 12.9261C26.5926 13.3584 25.5349 15.089 24.8232 16.2536C24.7769 16.3296 24.7319 16.4031 24.6882 16.4737C24.5848 16.6407 24.3657 16.6922 24.1987 16.5889C24.0318 16.4856 23.9802 16.2664 24.0835 16.0995C24.1282 16.0273 24.1751 15.9501 24.2246 15.8688C24.9273 14.7129 26.1383 12.721 28.7287 12.2275Z" fill="black"/>
<path fill-rule="evenodd" clip-rule="evenodd" d="M32.0703 14.768C32.0908 14.788 32.1098 14.8066 32.1274 14.8234C32.2694 14.959 32.2747 15.184 32.1391 15.3261C32.0035 15.4681 31.7785 15.4734 31.6364 15.3378C31.6161 15.3184 31.5957 15.2986 31.5749 15.2784C31.3828 15.092 31.1606 14.8764 30.7639 14.7476C30.3248 14.6051 29.6263 14.5593 28.4856 14.9157C28.2982 14.9742 28.0987 14.8697 28.0402 14.6823C27.9816 14.4949 28.0861 14.2954 28.2735 14.2369C29.5074 13.8514 30.3633 13.87 30.9834 14.0713C31.5443 14.2533 31.8749 14.5768 32.0703 14.768Z" fill="black"/>
<path fill-rule="evenodd" clip-rule="evenodd" d="M23.5243 18.0769C23.7305 18.1413 23.8454 18.3606 23.7811 18.5668C23.4991 19.4698 23.494 20.5322 23.5816 21.5178C23.625 22.0069 23.6904 22.4687 23.7521 22.8736C23.7662 22.966 23.7802 23.0565 23.7939 23.1442C23.8387 23.433 23.879 23.6917 23.8997 23.8905C23.9137 24.0245 23.8577 24.1562 23.7516 24.2392C22.8568 24.9388 22.4446 26.2429 22.2783 27.7192C22.1526 28.8341 22.1736 29.9659 22.1907 30.8919C22.1961 31.1819 22.2011 31.4518 22.2011 31.6946C22.2011 31.8885 22.059 32.0532 21.8671 32.0815C21.6753 32.1098 21.4916 31.9933 21.4356 31.8076C21.0797 30.6287 20.7219 30.1477 20.4895 29.9686C20.2946 29.8184 20.2039 29.8879 20.2039 29.8879C20.0241 30.0077 19.7813 29.9592 19.6615 29.7795C19.5416 29.5998 19.5901 29.357 19.7698 29.2372C20.042 29.0557 20.4999 28.9889 20.9671 29.349C21.1117 29.4605 21.255 29.6111 21.3956 29.8085C21.396 29.1205 21.4179 28.3688 21.501 27.6316C21.6624 26.1987 22.0649 24.6935 23.0966 23.7681C23.0774 23.6283 23.0522 23.4661 23.0235 23.2815C23.0094 23.1902 22.9944 23.0936 22.9788 22.9915C22.9163 22.5812 22.848 22.1005 22.8024 21.587C22.7118 20.5672 22.7067 19.3831 23.0344 18.3336C23.0988 18.1275 23.3181 18.0125 23.5243 18.0769Z" fill="black"/>
<path fill-rule="evenodd" clip-rule="evenodd" d="M37.8581 28.6958C38.0361 28.6129 38.2476 28.6901 38.3305 28.8681C38.7762 29.8259 39.3851 31.5804 39.5785 32.5244C39.8884 32.9879 40.1958 33.6489 40.2921 34.282C40.3425 34.6144 40.3388 34.966 40.2218 35.284C40.1003 35.6138 39.8635 35.8869 39.4946 36.0496C38.7758 36.3669 38.0378 36.513 37.4054 36.5365C36.79 36.5593 36.217 36.4677 35.8642 36.2499C35.6971 36.1468 35.6452 35.9277 35.7483 35.7606C35.8514 35.5935 36.0705 35.5416 36.2377 35.6447C36.4115 35.752 36.8136 35.8468 37.3791 35.8259C37.9275 35.8055 38.5763 35.6777 39.2075 35.3991C39.3946 35.3166 39.4976 35.1927 39.5545 35.0382C39.6158 34.8718 39.6289 34.6516 39.589 34.3887C39.5088 33.8604 39.231 33.2686 38.952 32.8677C38.9234 32.8266 38.9039 32.78 38.8945 32.7309C38.7329 31.8799 38.1258 30.1138 37.6858 29.1681C37.6029 28.9901 37.6801 28.7786 37.8581 28.6958Z" fill="black"/>
<path fill-rule="evenodd" clip-rule="evenodd" d="M19.0302 31.9245C19.2031 31.8314 19.4187 31.8959 19.5119 32.0688L20.6367 34.1561C20.7299 34.3289 20.6652 34.5446 20.4924 34.6378C20.3195 34.7309 20.1039 34.6663 20.0107 34.4935L18.8859 32.4062C18.7927 32.2334 18.8573 32.0177 19.0302 31.9245Z" fill="black"/>
<path fill-rule="evenodd" clip-rule="evenodd" d="M20.6672 32.6406C20.777 32.8033 20.7342 33.0243 20.5715 33.1342L19.1761 34.0763C19.0134 34.1862 18.7924 34.1434 18.6825 33.9806C18.5726 33.8179 18.6155 33.5968 18.7782 33.487L20.1735 32.5449C20.3363 32.435 20.5573 32.4778 20.6672 32.6406Z" fill="black"/>
<path d="M31.2753 29.4401C31.3363 30.1387 31.8321 30.666 32.3826 30.6178C32.9331 30.5697 33.3298 29.9643 33.2686 29.2656C33.2076 28.567 32.7118 28.0397 32.1613 28.0879C31.6108 28.136 31.2141 28.7414 31.2753 29.4401Z" fill="black"/>
<path d="M40.9466 29.7886C41.0077 30.4872 41.5035 31.0146 42.054 30.9664C42.6045 30.9182 43.0012 30.3129 42.94 29.6143C42.879 28.9156 42.3832 28.3883 41.8327 28.4365C41.2822 28.4847 40.8855 29.09 40.9466 29.7886Z" fill="black"/>
<path fill-rule="evenodd" clip-rule="evenodd" d="M33.7336 25.8159C34.507 26.0086 35.161 26.3158 35.5401 26.5313C35.7108 26.6284 35.7705 26.8455 35.6734 27.0161C35.5763 27.1869 35.3593 27.2465 35.1886 27.1495C34.8543 26.9594 34.2605 26.6801 33.5616 26.5058C32.8609 26.3312 32.0812 26.2688 31.3572 26.4808C30.6023 26.702 29.726 27.0814 29.2383 27.2926C29.1187 27.3444 29.0225 27.386 28.9571 27.4128C28.7753 27.4871 28.5678 27.4001 28.4934 27.2184C28.419 27.0366 28.506 26.829 28.6878 26.7546C28.7396 26.7334 28.8221 26.6977 28.9282 26.6516C29.4026 26.4459 30.3507 26.0347 31.1573 25.7984C32.0449 25.5384 32.9621 25.6236 33.7336 25.8159Z" fill="black"/>
<path fill-rule="evenodd" clip-rule="evenodd" d="M43.089 27.2075C42.3496 27.1514 41.5695 27.2843 41.1123 27.4503C40.9277 27.5174 40.7237 27.4221 40.6567 27.2375C40.5897 27.0529 40.685 26.8489 40.8695 26.7819C41.4224 26.5811 42.3035 26.4347 43.1428 26.4984C43.9643 26.5608 44.8741 26.8371 45.3046 27.6155C45.3997 27.7874 45.3374 28.0037 45.1656 28.0987C44.9937 28.1938 44.7774 28.1315 44.6824 27.9597C44.4325 27.5079 43.8462 27.265 43.089 27.2075Z" fill="black"/>
<path opacity="0.65" fill-rule="evenodd" clip-rule="evenodd" d="M35.7274 40.0969C35.3039 40.0802 34.8513 40.1253 34.4644 40.2855C34.1215 40.4276 33.7764 40.5359 33.4518 40.6129L35.1193 41.3478C35.2785 41.418 35.4523 41.4482 35.6258 41.4357L37.3027 41.3156C37.5624 41.297 37.8063 41.184 37.9885 40.9981L38.8828 40.0851C38.7222 40.08 38.5368 40.0673 38.3082 40.0498C37.7121 40.004 37.1431 40.1637 36.9527 40.2414C36.8765 40.2725 36.7918 40.2761 36.7133 40.2517C36.5159 40.1906 36.1496 40.1136 35.7274 40.0969ZM36.8046 39.5384C36.5446 39.4695 36.1708 39.4028 35.7555 39.3864C35.273 39.3673 34.7076 39.415 34.1923 39.6285C33.7664 39.8049 33.3366 39.923 32.9622 39.9881C32.5812 40.0544 32.282 40.0616 32.1103 40.0345C31.9339 40.0066 31.7641 40.114 31.7137 40.2854C31.6633 40.4568 31.7479 40.639 31.9114 40.711L34.8325 41.9986C35.0977 42.1155 35.3875 42.1657 35.6765 42.145L37.3535 42.0249C37.7863 41.9939 38.1928 41.8056 38.4964 41.4957L40.114 39.8445C40.2269 39.7293 40.2481 39.5526 40.1657 39.414C40.0833 39.2754 39.918 39.2096 39.7629 39.2536C39.4998 39.3283 39.355 39.3607 39.1833 39.3718C39.0022 39.3837 38.7804 39.3728 38.3627 39.3407C37.7249 39.2917 37.1249 39.4298 36.8046 39.5384Z" fill="black"/>
<path fill-rule="evenodd" clip-rule="evenodd" d="M39.9405 47.2701C40.1369 47.2701 40.2961 47.4294 40.2961 47.6257V54.7776C40.2961 54.9739 40.1369 55.1331 39.9405 55.1331C39.7442 55.1331 39.585 54.9739 39.585 54.7776V47.6257C39.585 47.4294 39.7442 47.2701 39.9405 47.2701Z" fill="black"/>
<path fill-rule="evenodd" clip-rule="evenodd" d="M21.4577 50.7369C21.5032 50.8911 21.4396 51.0565 21.3026 51.1406C20.2482 51.7872 19.2685 52.866 19.2574 54.0493C19.2467 55.1939 20.1512 56.673 23.431 58.1231C27.4893 59.9173 33.0428 60.1254 36.8429 59.0309C38.7524 58.481 40.1336 57.6271 40.7122 56.5689C41.2633 55.5606 41.1459 54.2393 39.7403 52.5628C39.6515 52.4569 39.6321 52.3092 39.6905 52.184C39.749 52.0588 39.8746 51.9789 40.0128 51.9789C41.0249 51.9789 42.0009 52.5061 42.7669 53.0417C43.1558 53.3137 43.5045 53.5979 43.7905 53.8371C43.8556 53.8916 43.9163 53.9427 43.973 53.9904C44.1522 54.1413 44.2904 54.2576 44.3937 54.3336L54.873 58.0086C57.3238 58.8682 59.2761 60.7565 60.2167 63.1771L61.6382 66.8356C61.6771 66.9354 61.6688 67.0474 61.6158 67.1404C61.5628 67.2335 61.4706 67.2976 61.365 67.3152L4.96903 76.6613C4.81771 76.6869 4.66736 76.6115 4.59607 76.4757L-2.43339 63.083C-2.47761 62.9987 -2.48622 62.9002 -2.45729 62.8096C-2.42836 62.719 -2.36431 62.6437 -2.27947 62.6006L15.2432 53.7087C16.0471 53.0331 17.2011 52.2477 18.2897 51.6248C18.8419 51.3088 19.384 51.0308 19.8607 50.8291C20.3246 50.6327 20.7685 50.4901 21.1083 50.482C21.269 50.4782 21.4122 50.5827 21.4577 50.7369ZM18.6428 52.242C17.5679 52.8571 16.4352 53.6311 15.6706 54.2784C15.6495 54.2963 15.6264 54.3117 15.6018 54.3242L-1.63622 63.0717L5.1063 75.9182L60.8169 66.6852L59.5538 63.4347C58.6885 61.2077 56.8924 59.4704 54.6377 58.6797L44.1106 54.9878C44.0804 54.9773 44.0518 54.9627 44.0256 54.9445C43.8889 54.8497 43.7029 54.6929 43.4959 54.5184C43.4432 54.4741 43.3891 54.4286 43.3342 54.3826C43.0528 54.1472 42.7228 53.8786 42.3594 53.6245C41.8743 53.2853 41.3525 52.9886 40.8293 52.8248C41.8541 54.3446 41.9805 55.7312 41.3361 56.9099C40.6188 58.2221 39.0061 59.148 37.0398 59.7143C33.0883 60.8524 27.3627 60.6388 23.1435 58.7735C19.8014 57.2959 18.5314 55.6377 18.5463 54.0427C18.5542 53.1957 18.9269 52.4357 19.4462 51.8076C19.1887 51.938 18.9185 52.0843 18.6428 52.242Z" fill="black"/>
</g>
</svg>
